<svg xmlns="http://www.w3.org/2000/svg" width="24" height="24" viewBox="0 0 24 24">
  <path id="Icon_awesome-user-edit" data-name="Icon awesome-user-edit" d="M8.4,12c2.651,0,4.8-2.686,4.8-6S11.052,0,8.4,0,3.6,2.686,3.6,6,5.749,12,8.4,12Zm3.36,1.5h-.626a5.358,5.358,0,0,1-5.468,0H5.04C2.258,13.5,0,16.321,0,19.8v1.95A2.064,2.064,0,0,0,1.8,24H12.109a2.779,2.779,0,0,1-.1-1l.255-2.855.045-.52.3-.37,2.9-3.623A4.644,4.644,0,0,0,11.76,13.5Zm1.7,6.811L13.2,23.17c-.041.478.281.881.66.825l2.284-.319,5.171-6.464-2.689-3.361L13.459,20.31ZM23.738,12.6l-1.421-1.777a.778.778,0,0,0-1.268,0L19.632,12.6l-.154.192,2.693,3.361,1.568-1.959A1.337,1.337,0,0,0,23.738,12.6Z" fill="#060a80"/>
</svg>
