<svg xmlns="http://www.w3.org/2000/svg" width="24" height="18" viewBox="0 0 24 18">
  <path id="Icon_awesome-folder-open" data-name="Icon awesome-folder-open" d="M23.862,15.192l-3.018,5.82a2.626,2.626,0,0,1-2.3,1.488H1.876a1.131,1.131,0,0,1-.864-1.692l3.018-5.82a2.627,2.627,0,0,1,2.3-1.488H23a1.131,1.131,0,0,1,.864,1.692ZM6.333,12H20V9.75A2.136,2.136,0,0,0,18,7.5H11.333l-2.667-3H2A2.136,2.136,0,0,0,0,6.75V19.783l2.878-5.551A3.953,3.953,0,0,1,6.333,12Z" transform="translate(0 -4.5)" fill="#3f067e"/>
</svg>
