<svg xmlns="http://www.w3.org/2000/svg" xmlns:xlink="http://www.w3.org/1999/xlink" width="1230" height="1230" viewBox="0 0 1230 1230">
  <defs>
    <linearGradient id="linear-gradient" x1="0.5" x2="0.5" y2="1" gradientUnits="objectBoundingBox">
      <stop offset="0" stop-color="#f17900"/>
      <stop offset="1" stop-color="#f91706"/>
    </linearGradient>
    <filter id="Subtraction_173" x="0" y="0" width="1230" height="1230" filterUnits="userSpaceOnUse">
      <feOffset dx="25" dy="25" input="SourceAlpha"/>
      <feGaussianBlur stdDeviation="25" result="blur"/>
      <feFlood flood-color="#0008ff"/>
      <feComposite operator="in" in2="blur"/>
      <feComposite in="SourceGraphic"/>
    </filter>
  </defs>
  <g transform="matrix(1, 0, 0, 1, 0, 0)" filter="url(#Subtraction_173)">
    <path id="Subtraction_173-2" data-name="Subtraction 173" d="M540,1080.078a548.669,548.669,0,0,1-55.212-2.788,541.35,541.35,0,0,1-53.617-8.183c-17.4-3.56-34.81-8.037-51.751-13.306-16.755-5.211-33.447-11.321-49.613-18.159-16.019-6.775-31.9-14.426-47.2-22.739-15.195-8.254-30.174-17.355-44.523-27.049-14.28-9.647-28.266-20.106-41.571-31.086-13.272-10.953-26.174-22.679-38.347-34.853s-23.9-25.076-34.853-38.347C112.329,870.262,101.87,856.276,92.223,842c-9.694-14.349-18.795-29.329-27.048-44.523-8.313-15.3-15.964-31.185-22.739-47.2C35.6,734.1,29.488,717.412,24.277,700.658c-5.27-16.942-9.747-34.354-13.306-51.751A541.335,541.335,0,0,1,2.788,595.29,548.661,548.661,0,0,1,0,540.078c0-18.045.9-36.245,2.676-54.095,1.75-17.6,4.393-35.283,7.857-52.57,3.419-17.065,7.719-34.153,12.782-50.79,5.007-16.453,10.879-32.856,17.453-48.755,6.514-15.754,13.872-31.387,21.869-46.465,7.94-14.97,16.7-29.747,26.03-43.92,9.286-14.1,19.358-27.937,29.936-41.12,10.549-13.147,21.85-25.953,33.587-38.064s24.175-23.8,36.983-34.754c12.833-10.977,26.333-21.471,40.123-31.189,13.85-9.76,28.321-18.968,43.009-27.368,14.784-8.455,30.14-16.292,45.64-23.293,15.635-7.062,31.789-13.441,48.015-18.962,16.4-5.579,33.267-10.416,50.136-14.376,17.077-4.009,34.572-7.217,52-9.536,17.67-2.351,35.708-3.844,53.612-4.44-2.283.186-4.908.444-8.026.791a40.806,40.806,0,0,1-3.364,2.878C506.942,6.7,505.4,7.909,495.533,27.743a72.6,72.6,0,0,1-7.76,12.334A85.542,85.542,0,0,1,478.452,50.2c-6.621,6.179-14.075,11.473-21.284,16.594-5.206,3.7-10.588,7.521-15.647,11.666A99.886,99.886,0,0,0,427.336,92.4a76.071,76.071,0,0,0-11.2,18.434,86.591,86.591,0,0,0-4,11.6,107.05,107.05,0,0,0-2.685,13.558c-13.23,6.457-24.392,12.24-34.126,17.68a330.486,330.486,0,0,0-28.271,17.5,183.934,183.934,0,0,0-22.61,18.374A123.882,123.882,0,0,0,307.3,209.839c-9.716,14.5-15.821,31.029-18.663,50.532a204.1,204.1,0,0,0-1.909,32.334,359.3,359.3,0,0,0,2.781,38.443c-13.485,19.526-24.8,30.216-34.779,39.649-22.994,21.73-38.185,36.085-54.152,134.7a1.306,1.306,0,0,0-.12.526.011.011,0,0,0,.01.005c.007,0,.016-.005.028-.018l.018-.113.065-.4c.612-1.789,2.936-6.4,7.751-12.332a100.447,100.447,0,0,1,10.086-10.616,141.922,141.922,0,0,1,15.6-12.3c14.253-9.777,31.7-18.47,51.869-25.836a379.341,379.341,0,0,1,38.33-11.613c14.895-3.708,31.033-6.892,47.968-9.465,72.125-17.751,117.937-46.514,136.162-85.488a96.952,96.952,0,0,0,7.577-23.978,112.657,112.657,0,0,0,1.63-22.743c-.381-14.5-3.229-27.633-5.309-37.224l0-.008c-.955-4.4-1.779-8.206-2.182-11.228a1.922,1.922,0,0,1,1.182-.357c2.236,0,6.1,2.712,10.892,7.635a151.38,151.38,0,0,1,16.3,20.739c8.026,11.978,22.785,36.713,31.458,67.792a172.182,172.182,0,0,1,6.364,37.984,122.964,122.964,0,0,1-3.92,38.255,103,103,0,0,1-17.786,35.848,114.783,114.783,0,0,1-15.212,16.185,140.371,140.371,0,0,1-20.022,14.579c-5.475,2.994-11.156,5.786-16.887,8.3-5.46,2.393-11.143,4.611-16.892,6.591a258.579,258.579,0,0,1-33.782,9.037c-22.513,4.506-45.337,6.438-67.41,8.305-15.292,1.294-31.1,2.632-46.575,4.814-8.325,1.174-15.9,2.493-23.168,4.032-8.147,1.727-15.694,3.685-23.071,5.987a216.945,216.945,0,0,0-22.96,8.595,205.416,205.416,0,0,0-22.835,11.855,215.644,215.644,0,0,0-22.7,15.77,247.956,247.956,0,0,0-22.546,20.336c-66.538,58.323-57.839,159.442-46.732,214.527a470.6,470.6,0,0,0,20.645,71.769c4.2,11.224,8.827,22.282,13.741,32.867,4.82,10.382,9.952,20.38,15.253,29.715,5.253,9.252,10.7,17.9,16.19,25.709a211.915,211.915,0,0,0,16.551,20.847,119.1,119.1,0,0,0,16.338,15.13,56.355,56.355,0,0,0,15.55,8.559c-3.47-2.8-7.31-7.129-11.413-12.879A180.1,180.1,0,0,1,244,970.3a291.277,291.277,0,0,1-12.466-27.332c-4.14-10.408-7.834-21.244-10.979-32.207a334.4,334.4,0,0,1-8.148-35.515,286.207,286.207,0,0,1-3.975-37.254c-1.038-27.1,2.307-51.81,9.941-73.457a147.764,147.764,0,0,1,9.411-21.265,135.014,135.014,0,0,1,29.917-37.441,148.019,148.019,0,0,1,21.176-15.393,175.141,175.141,0,0,1,25.767-12.654,221.542,221.542,0,0,1,30.694-9.523,292.756,292.756,0,0,1,35.956-6,395.808,395.808,0,0,1,41.553-2.087,573.483,573.483,0,0,1,68.1,4.384c25.115,3.028,52.237,7.693,80.611,13.864,11.315,2.584,23.006,5.742,34.748,9.387,11.247,3.491,22.839,7.52,34.454,11.976A706.932,706.932,0,0,1,697.786,729.8c38.668,19.683,78.849,44.05,119.429,72.422,70.342,49.182,118.776,94.237,124.067,99.212A540.9,540.9,0,0,1,763.3,1031.889,536.66,536.66,0,0,1,598.918,1076.9,548.256,548.256,0,0,1,540,1080.078ZM941.463,901.232C929.7,873.473,652.018,218.99,544.163,10.55c-.748-1.283-1.34-2.458-1.863-3.495a14.912,14.912,0,0,0-3.163-4.79c-1.41-1.223-3.359-1.883-6.321-2.139C535.253.093,537.671.078,540,.078a548.7,548.7,0,0,1,55.212,2.788,541.37,541.37,0,0,1,53.617,8.183c17.4,3.56,34.809,8.037,51.751,13.307,16.752,5.21,33.444,11.32,49.613,18.159,16.019,6.775,31.9,14.426,47.2,22.739,15.195,8.254,30.174,17.355,44.523,27.049,14.279,9.647,28.266,20.106,41.571,31.086,13.272,10.953,26.174,22.679,38.347,34.853s23.9,25.076,34.853,38.347c10.98,13.3,21.438,27.291,31.086,41.571,9.694,14.349,18.794,29.329,27.049,44.523,8.313,15.3,15.964,31.185,22.739,47.2,6.839,16.168,12.948,32.861,18.159,49.613,5.27,16.942,9.747,34.354,13.306,51.751a541.334,541.334,0,0,1,8.183,53.617A548.673,548.673,0,0,1,1080,540.078c0,17.162-.814,34.477-2.42,51.465-1.584,16.758-3.978,33.613-7.114,50.1-3.1,16.282-7,32.6-11.589,48.51-4.543,15.736-9.874,31.449-15.846,46.7-5.917,15.116-12.607,30.148-19.883,44.679-7.223,14.424-15.2,28.7-23.7,42.435-8.458,13.659-17.643,27.108-27.3,39.973-9.624,12.82-19.947,25.367-30.681,37.29Z" transform="translate(50 49.92)" fill="url(#linear-gradient)"/>
  </g>
</svg>
