<svg xmlns="http://www.w3.org/2000/svg" width="20" height="20" viewBox="0 0 20 20">
  <defs>
    <style>
      .cls-1 {
        fill: #24b900;
      }

      .cls-2, .cls-3 {
        stroke: none;
      }

      .cls-3 {
        fill: #033a07;
      }
    </style>
  </defs>
  <g id="Icon_awesome-users" data-name="Icon awesome-users" class="cls-1" transform="translate(0 -2.25)">
    <path class="cls-2" d="M 14.5 21.90000152587891 L 5.5 21.90000152587891 C 4.876639842987061 21.90000152587891 4.349999904632568 21.07897186279297 4.349999904632568 20.10714149475098 L 4.349999904632568 18.82143020629883 C 4.349999904632568 16.17864036560059 5.807940006256104 14.02857112884521 7.599999904632568 14.02857112884521 L 7.753165245056152 14.02857112884521 C 8.478075981140137 14.50264453887939 9.233436584472656 14.74286079406738 10 14.74286079406738 C 10.76978302001953 14.74286079406738 11.52532196044922 14.50261211395264 12.24723625183105 14.02857112884521 L 12.39999961853027 14.02857112884521 C 14.19206047058105 14.02857112884521 15.64999961853027 16.17864036560059 15.64999961853027 18.82143020629883 L 15.64999961853027 20.10714149475098 C 15.64999961853027 21.07897186279297 15.12335968017578 21.90000152587891 14.5 21.90000152587891 Z M 19 17.61429023742676 L 17.25166511535645 17.61429023742676 C 17.01494789123535 15.71644306182861 16.23777389526367 14.08003807067871 15.07996082305908 13.0350341796875 C 15.3528528213501 12.75241661071777 15.67173671722412 12.60000133514404 16 12.60000133514404 L 18 12.60000133514404 C 18.89439010620117 12.60000133514404 19.64999961853027 13.74813079833984 19.64999961853027 15.10714054107666 L 19.64999961853027 16.53572082519531 C 19.64999961853027 17.11029052734375 19.34626007080078 17.61429023742676 19 17.61429023742676 Z M 2.745645523071289 17.61429023742676 L 1 17.61429023742676 C 0.6537399888038635 17.61429023742676 0.3499999940395355 17.11029052734375 0.3499999940395355 16.53572082519531 L 0.3499999940395355 15.10714054107666 C 0.3499999940395355 13.74813079833984 1.105610013008118 12.60000133514404 2 12.60000133514404 L 4 12.60000133514404 C 4.328263282775879 12.60000133514404 4.647163391113281 12.75242614746094 4.920047283172607 13.03503894805908 C 3.763036966323853 14.07929134368896 2.985022068023682 15.71571731567383 2.745645523071289 17.61429023742676 Z M 10 11.90000057220459 C 8.263079643249512 11.90000057220459 6.849999904632568 9.814021110534668 6.849999904632568 7.250000953674316 C 6.849999904632568 4.685980796813965 8.263079643249512 2.600000858306885 10 2.600000858306885 C 11.73692035675049 2.600000858306885 13.14999961853027 4.685980796813965 13.14999961853027 7.250000953674316 C 13.14999961853027 9.814021110534668 11.73692035675049 11.90000057220459 10 11.90000057220459 Z M 17 10.47143077850342 C 16.10560989379883 10.47143077850342 15.35000038146973 9.323301315307617 15.35000038146973 7.964291095733643 C 15.35000038146973 6.605270862579346 16.10560989379883 5.457140922546387 17 5.457140922546387 C 17.89439010620117 5.457140922546387 18.64999961853027 6.605270862579346 18.64999961853027 7.964291095733643 C 18.64999961853027 9.323301315307617 17.89439010620117 10.47143077850342 17 10.47143077850342 Z M 3 10.47143077850342 C 2.105609893798828 10.47143077850342 1.350000023841858 9.323301315307617 1.350000023841858 7.964291095733643 C 1.350000023841858 6.605270862579346 2.105609893798828 5.457140922546387 3 5.457140922546387 C 3.894390106201172 5.457140922546387 4.650000095367432 6.605270862579346 4.650000095367432 7.964291095733643 C 4.650000095367432 9.323301315307617 3.894390106201172 10.47143077850342 3 10.47143077850342 Z"/>
    <path class="cls-3" d="M 10 2.950000762939453 C 9.299480438232422 2.950000762939453 8.624030113220215 3.363790512084961 8.09807014465332 4.115150451660156 C 7.518939971923828 4.942480087280273 7.199999809265137 6.055791854858398 7.199999809265137 7.250001907348633 C 7.199999809265137 8.444210052490234 7.518939971923828 9.557520866394043 8.09807014465332 10.38485050201416 C 8.624030113220215 11.13621139526367 9.299480438232422 11.55000114440918 10 11.55000114440918 C 10.70053005218506 11.55000114440918 11.37598037719727 11.13621139526367 11.90192985534668 10.38485050201416 C 12.48106002807617 9.557520866394043 12.80000019073486 8.444210052490234 12.80000019073486 7.250001907348633 C 12.80000019073486 6.055791854858398 12.48106002807617 4.942480087280273 11.90192985534668 4.115150451660156 C 11.37598037719727 3.363790512084961 10.70053005218506 2.950000762939453 10 2.950000762939453 M 3 5.807140350341797 C 2.385120391845703 5.807140350341797 1.700000762939453 6.693050384521484 1.700000762939453 7.96428108215332 C 1.700000762939453 9.23552131652832 2.385120391845703 10.12143135070801 3 10.12143135070801 C 3.614879608154297 10.12143135070801 4.300000190734863 9.23552131652832 4.300000190734863 7.96428108215332 C 4.300000190734863 6.693050384521484 3.614879608154297 5.807140350341797 3 5.807140350341797 M 17 5.807140350341797 C 16.3851203918457 5.807140350341797 15.69999980926514 6.693050384521484 15.69999980926514 7.96428108215332 C 15.69999980926514 9.23552131652832 16.3851203918457 10.12143135070801 17 10.12143135070801 C 17.6148796081543 10.12143135070801 18.29999923706055 9.23552131652832 18.29999923706055 7.96428108215332 C 18.29999923706055 6.693050384521484 17.6148796081543 5.807140350341797 17 5.807140350341797 M 2 12.95000076293945 C 1.385120391845703 12.95000076293945 0.7000007629394531 13.83591079711914 0.7000007629394531 15.10714054107666 L 0.7000007629394531 16.53572082519531 C 0.7000007629394531 16.99788093566895 0.9276695251464844 17.26428985595703 1 17.26428985595703 L 2.441890716552734 17.26428985595703 C 2.708942413330078 15.57398891448975 3.395420074462891 14.09788417816162 4.392382621765137 13.059739112854 C 4.276966094970703 12.99406433105469 4.145359039306641 12.95000076293945 4 12.95000076293945 L 2 12.95000076293945 M 16 12.95000076293945 C 15.85463714599609 12.95000076293945 15.72306060791016 12.99404525756836 15.60764503479004 13.05971813201904 C 16.60520362854004 14.09835529327393 17.29084396362305 15.57449626922607 17.5558032989502 17.26428985595703 L 19 17.26428985595703 C 19.07233047485352 17.26428985595703 19.29999923706055 16.99788093566895 19.29999923706055 16.53572082519531 L 19.29999923706055 15.10714054107666 C 19.29999923706055 13.83591079711914 18.6148796081543 12.95000076293945 18 12.95000076293945 L 16 12.95000076293945 M 7.600000381469727 14.37857055664062 C 6.873780250549316 14.37857055664062 6.173500061035156 14.80762100219727 5.62814998626709 15.58669090270996 C 5.029620170593262 16.44173049926758 4.699999809265137 17.59051132202148 4.699999809265137 18.82143020629883 L 4.699999809265137 20.10714149475098 C 4.699999809265137 20.93295097351074 5.122360229492188 21.55000114440918 5.5 21.55000114440918 L 14.5 21.55000114440918 C 14.87763977050781 21.55000114440918 15.30000019073486 20.93295097351074 15.30000019073486 20.10714149475098 L 15.30000019073486 18.82143020629883 C 15.30000019073486 17.59051132202148 14.97037982940674 16.44173049926758 14.37185001373291 15.58669090270996 C 13.82649993896484 14.80762100219727 13.126220703125 14.37857055664062 12.39999961853027 14.37857055664062 L 12.35004043579102 14.37857055664062 C 11.59699535369873 14.85268306732178 10.80737972259521 15.09286117553711 10 15.09286117553711 C 9.195734024047852 15.09286117553711 8.406444549560547 14.85273933410645 7.650675773620605 14.37857055664062 L 7.600000381469727 14.37857055664062 M 10 2.250001907348633 C 11.93437957763672 2.250001907348633 13.5 4.486610412597656 13.5 7.250001907348633 C 13.5 10.01339054107666 11.93437957763672 12.25000095367432 10 12.25000095367432 C 8.065629959106445 12.25000095367432 6.5 10.01339054107666 6.5 7.250001907348633 C 6.5 4.486610412597656 8.065629959106445 2.250001907348633 10 2.250001907348633 Z M 3 5.107141494750977 C 4.103119850158691 5.107141494750977 5 6.388391494750977 5 7.96428108215332 C 5 9.540181159973145 4.103119850158691 10.82143115997314 3 10.82143115997314 C 1.896879196166992 10.82143115997314 1 9.540181159973145 1 7.96428108215332 C 1 6.388391494750977 1.896879196166992 5.107141494750977 3 5.107141494750977 Z M 17 5.107141494750977 C 18.10313034057617 5.107141494750977 19 6.388391494750977 19 7.96428108215332 C 19 9.540181159973145 18.10313034057617 10.82143115997314 17 10.82143115997314 C 15.89686965942383 10.82143115997314 15 9.540181159973145 15 7.96428108215332 C 15 6.388391494750977 15.89686965942383 5.107141494750977 17 5.107141494750977 Z M 2 12.25000095367432 L 4 12.25000095367432 C 4.550000190734863 12.25000095367432 5.046870231628418 12.56696128845215 5.409370422363281 13.08036136627197 C 4.149999618530273 14.06696128845215 3.256250381469727 15.84821128845215 3.059379577636719 17.96429061889648 L 1 17.96429061889648 C 0.4468708038330078 17.96429061889648 0 17.32589149475098 0 16.53572082519531 L 0 15.10714054107666 C 0 13.53125095367432 0.8968791961669922 12.25000095367432 2 12.25000095367432 Z M 16 12.25000095367432 L 18 12.25000095367432 C 19.10313034057617 12.25000095367432 20 13.53125095367432 20 15.10714054107666 L 20 16.53572082519531 C 20 17.32589149475098 19.55312919616699 17.96429061889648 19 17.96429061889648 L 16.9375 17.96429061889648 C 16.74374961853027 15.84821128845215 15.85000038146973 14.06696128845215 14.59062957763672 13.08036136627197 C 14.95312023162842 12.56696128845215 15.44999980926514 12.25000095367432 16 12.25000095367432 Z M 7.600000381469727 13.67857074737549 L 7.859370231628418 13.67857074737549 C 8.512499809265137 14.12500095367432 9.231249809265137 14.39286136627197 10 14.39286136627197 C 10.76875019073486 14.39286136627197 11.49063014984131 14.12500095367432 12.14062023162842 13.67857074737549 L 12.39999961853027 13.67857074737549 C 14.38749980926514 13.67857074737549 16 15.98214054107666 16 18.82143020629883 L 16 20.10714149475098 C 16 21.29018020629883 15.32812023162842 22.25 14.5 22.25 L 5.5 22.25 C 4.671870231628418 22.25 4 21.29018020629883 4 20.10714149475098 L 4 18.82143020629883 C 4 15.98214054107666 5.612500190734863 13.67857074737549 7.600000381469727 13.67857074737549 Z"/>
  </g>
</svg>
