<svg xmlns="http://www.w3.org/2000/svg" width="25.345" height="22.623" viewBox="0 0 25.345 22.623"><g transform="translate(-2.875 7.263)"><path d="M23.046,22.965V9.958a2.256,2.256,0,0,0-2.386-2.083H5.761A2.256,2.256,0,0,0,3.375,9.958V22.97a2.256,2.256,0,0,0,2.386,2.083h14.9A2.261,2.261,0,0,0,23.046,22.965ZM9.483,17.242l2.531,3.122,3.727-4.684,4.918,6.245H5.761Z" transform="translate(0 -10.194)" fill="#fcfcfc" stroke="#3c41df" stroke-width="1"/><path d="M25.607,3.375H10.323A2.42,2.42,0,0,0,7.875,5.754v.3h14.98A2.42,2.42,0,0,1,25.3,8.429v14.56h.3A2.583,2.583,0,0,0,27.7,21.841a2.108,2.108,0,0,0,.355-1.231V5.754A2.42,2.42,0,0,0,25.607,3.375Z" transform="translate(-0.335 -10.138)" fill="#fcfcfc" stroke="#3c41df" stroke-width="1"/></g></svg>