<svg xmlns="http://www.w3.org/2000/svg" xmlns:xlink="http://www.w3.org/1999/xlink" width="23.801" height="22" viewBox="0 0 23.801 22">
  <defs>
    <linearGradient id="linear-gradient" x1="0.5" x2="0.5" y2="1" gradientUnits="objectBoundingBox">
      <stop offset="0" stop-color="#0009ff"/>
      <stop offset="1" stop-color="#8e92fb"/>
    </linearGradient>
    <linearGradient id="linear-gradient-2" x1="0.5" x2="0.5" y2="0.783" gradientUnits="objectBoundingBox">
      <stop offset="0" stop-color="#a1a1f5"/>
      <stop offset="1" stop-color="#272729"/>
    </linearGradient>
    <linearGradient id="linear-gradient-3" x1="0.5" x2="0.5" y2="1" gradientUnits="objectBoundingBox">
      <stop offset="0" stop-color="#057718"/>
      <stop offset="1" stop-color="#8ffc9a"/>
    </linearGradient>
    <radialGradient id="radial-gradient" cx="0.5" cy="0.5" r="0.5" gradientUnits="objectBoundingBox">
      <stop offset="0" stop-color="#f6720d"/>
      <stop offset="1" stop-color="#e20808"/>
    </radialGradient>
    <linearGradient id="linear-gradient-4" x1="0.5" x2="0.5" y2="1" gradientUnits="objectBoundingBox">
      <stop offset="0" stop-color="#f8ab2c"/>
      <stop offset="1" stop-color="#503a18"/>
    </linearGradient>
    <linearGradient id="linear-gradient-5" x1="0.5" x2="0.5" y2="1" gradientUnits="objectBoundingBox">
      <stop offset="0" stop-color="#c2f8f0"/>
      <stop offset="1" stop-color="#2c413b"/>
    </linearGradient>
  </defs>
  <g id="Group_3" data-name="Group 3" transform="translate(392 359.423)">
    <g id="group" transform="translate(-392 -359.423)">
      <path id="Path_1" data-name="Path 1" d="M10.19,15.822A2.736,2.736,0,0,0,8.823,14.9l-1.938-.545h0v-1.39H4.518v1.394h0L2.585,14.9A3.237,3.237,0,0,0,.43,18.112v3.719H4.714Z" transform="translate(0 -1.98)" fill="url(#linear-gradient)"/>
      <path id="Path_2" data-name="Path 2" d="M6.365,12.968v1.108L5.244,16.76,4.125,14.08V12.968Z" transform="translate(0.376 -1.76)" fill="#ffb487"/>
      <path id="Path_3" data-name="Path 3" d="M7.956,9.249v1.8A2.741,2.741,0,0,1,5.4,13.935h0a2.741,2.741,0,0,1-2.561-2.89v-1.8Z" transform="translate(0 -3.157)" fill="#ffcdac"/>
      <path id="Path_4" data-name="Path 4" d="M7.74,10.255V9.572A2.665,2.665,0,0,0,5.287,6.737h0A2.665,2.665,0,0,0,2.834,9.572v.683H4.525a5.269,5.269,0,0,0,3.007-.961h0" transform="translate(0.216 -4.031)" fill="url(#linear-gradient-2)"/>
      <path id="Path_5" data-name="Path 5" d="M12.667,15.751a2.811,2.811,0,0,1,1.4-.9l1.983-.532h0V12.968h2.422v1.359h0l2.259.339c1.294.346,1.925,1.83,1.925,3.318v3.627H18.271Z" transform="translate(0.716 -1.76)" fill="url(#linear-gradient-3)"/>
      <path id="Path_6" data-name="Path 6" d="M10.193,15.142,7.4,15.867a4.326,4.326,0,0,0-3.1,4.259v2.907H19.5v-2.9a4.325,4.325,0,0,0-3.107-4.26l-2.786-.72Z" transform="translate(0 -1.463)" fill="url(#radial-gradient)"/>
      <g id="Group_2" data-name="Group 2" transform="translate(10.19 11.208)">
        <path id="Path_7" data-name="Path 7" d="M17.875,12.968V14.08l-1.119,2.68-1.12-2.684V12.968Z" transform="translate(-8.938 -12.968)" fill="#ffb487"/>
        <path id="Path_8" data-name="Path 8" d="M11.23,19.31l1.832-4.2a1.537,1.537,0,0,1-.213-.783v-.4H9.609v.4a1.537,1.537,0,0,1-.213.781Z" transform="translate(-9.396 -13.245)" fill="#ffb487"/>
      </g>
      <path id="Path_9" data-name="Path 9" d="M14.352,8.23V11c0,2.219-1.362,4.928-3.237,4.872C9.271,15.931,7.648,13.222,7.648,11V8.23Z" transform="translate(0.901 -4.072)" fill="#ffcdac"/>
      <path id="Path_10" data-name="Path 10" d="M11,4.96h0A3.545,3.545,0,0,0,7.648,8.671L7.875,10.1H9.406c1.089,0,2-1.073,2.7-2h0l2.242,1.458V8.671A3.545,3.545,0,0,0,11,4.96Z" transform="translate(0.901 -4.577)" fill="url(#linear-gradient-4)"/>
      <path id="Path_11" data-name="Path 11" d="M14.061,9.206v1.726c.115,2.754.908,3.038,2.157,3.038a3.576,3.576,0,0,0,2.641-3.109V9.253Z" transform="translate(1.801 -2.982)" fill="#ffcdac"/>
      <path id="Path_12" data-name="Path 12" d="M14.353,11.416v-.908c0-2.083,1.111-3.771,2.48-3.771h0c1.37,0,2.48,1.688,2.48,3.771v.908H17.6a4.514,4.514,0,0,1-3.04-1.279h0" transform="translate(1.346 -4.577)" fill="url(#linear-gradient-5)"/>
      <path id="Path_13" data-name="Path 13" d="M10.989,21.141a.43.43,0,1,0,.3.126A.433.433,0,0,0,10.989,21.141Z" transform="translate(0.9 0)"/>
      <path id="Path_14" data-name="Path 14" d="M21.317,16.69l-1.693-.474-.256-.66a4.123,4.123,0,0,0,1.486-3.191V10.343c0-1.975-1.03-3.581-2.721-3.581a2.5,2.5,0,0,0-2.3,1.538c-.339-1.131-1.4-3.554-4.069-3.723-2.981.62-3.3,3.229-3.56,4.277-.563-.746-1.159-2.248-2.538-2.092-1.9.013-2.88,1.741-2.88,3.715v1.888a3.624,3.624,0,0,0,1.246,3.028v.718L2.7,16.8A3.558,3.558,0,0,0,0,20.217v3.647a.508.508,0,0,0,.465.543H4.182v1.628a.508.508,0,0,0,.465.543h5.1a.508.508,0,0,0,.465-.543c0-.3-.208-.3-.465-.3H7.5V23.044c0-.3-.036-.483-.293-.483s-.3.183-.3.483l.128,2.692H4.647V22.561a4.217,4.217,0,0,1,3.161-3.73l2.436-.442,1.523,4.068c.1.332.184.628.33,0l1.7-3.9,2.5.459a4.3,4.3,0,0,1,2.548,4.028v2.692H16.911L16.828,23.1c0-.3.024-.543-.233-.543s-.305.243-.305.543v2.632h-2.3c-.257,0-.6,0-.6.3a.508.508,0,0,0,.465.543h5.292a.508.508,0,0,0,.465-.543V24.407h3.727a.508.508,0,0,0,.465-.543V20.217A3.511,3.511,0,0,0,21.317,16.69Zm-2.479-.121-.71,1.984-.7-1.957c0-.02,0-.04,0-.059s0-.01,0-.015v-.67a2.623,2.623,0,0,0,1.406,0v.69C18.836,16.549,18.837,16.559,18.838,16.569Zm-8.785.7a5.276,5.276,0,0,0-1.2-.722L7.3,16.107V15.4A7.041,7.041,0,0,0,8.52,13.674,5.713,5.713,0,0,0,10.126,16.4ZM8.744,12.109V10.62h1.382a4.356,4.356,0,0,0,3.1-1.766l1.935,1.134v2.249a6.138,6.138,0,0,1-.217,1.437,3.436,3.436,0,0,1-2.96,2.723C10.242,16.4,8.744,14.144,8.744,12.109Zm5.245,4.107c.661-.459,1.169-1.893,1.522-2.694a9.808,9.808,0,0,0,1.4,2.034l-.279.66-1.687.326a5.354,5.354,0,0,0-1.219.722l-.118-.722Zm4.143-.823c-1.179,0-2.206-1.166-2.3-3.157V10.62a6.5,6.5,0,0,0,3.1.8h1.33v.943C20.27,13.741,19.311,15.393,18.132,15.393Zm0-8.073c1.807-.033,2.138,1.646,2.138,3.023v.475h-1.33c-.336,0-2.592.022-3.1-.829C15.375,9.281,16.9,7.32,18.132,7.32ZM8.744,9.293c0-2.034,1.018-4.04,3.161-4.04s3.161,2.005,3.161,4.04v.071L13.341,8.181a.42.42,0,0,0-.592.119,3.59,3.59,0,0,1-2.7,1.688H8.744ZM5.669,7.564C7.1,7.62,7.461,8.6,7.721,9.64a5,5,0,0,1-2.785.98l-1.521.173S3.767,7.395,5.669,7.564Zm-2.255,3.96,1.446-.178a6.944,6.944,0,0,0,2.947-.869v1.888c.036,2.039-.959,2.888-2.138,2.888s-2.242-.588-2.255-3.143C3.415,12.109,3.415,11.523,3.415,11.523Zm2.255,4.422a2.649,2.649,0,0,0,.7-.1V16.5q0,.015,0,.031c0,.017,0,.034,0,.051l-.7,1.966-.706-1.974c0-.013,0-.026,0-.039v-.69A2.649,2.649,0,0,0,5.669,15.946Zm-1.487,7.1v.629H2.7V20.911c0-.3-.119-.543-.376-.543s-.271.243-.271.543v2.762H.614v-3.8A2.51,2.51,0,0,1,2.7,17.6l1.474-.411.962,2.689A5.584,5.584,0,0,0,4.182,23.044ZM7.5,18.135a3.964,3.964,0,0,0-.786.315l.453-1.265L8.64,17.6a2.077,2.077,0,0,1,.333.126Zm4.406,3.746-1.323-3.611.154-1.586a3.534,3.534,0,0,0,2.323.005l.295,1.7Zm2.914-4.154a2.082,2.082,0,0,1,.342-.13l1.47-.411.455,1.271a3.965,3.965,0,0,0-.8-.32ZM23.1,23.652H21.581V20.911c0-.3-.007-.532-.264-.532s-.216.232-.216.532v2.741H19.624l-.014-.605a5.585,5.585,0,0,0-.951-3.163l.965-2.7,1.477.241a3.048,3.048,0,0,1,2,2.789Z" transform="translate(0 -4.577)" fill="#042601"/>
      <path id="Path_15" data-name="Path 15" d="M9.729,9.937a.6.6,0,1,0,.424.176A.6.6,0,0,0,9.729,9.937Z" transform="translate(0.371 -3.087)"/>
      <path id="Path_16" data-name="Path 16" d="M12.6,11.137a.6.6,0,1,0-.424-.176A.6.6,0,0,0,12.6,11.137Z" transform="translate(1.023 -3.087)"/>
      <path id="Path_17" data-name="Path 17" d="M12.075,11.68a.354.354,0,0,0-.467,0,1.045,1.045,0,0,1-.812.2c-.548.041-.767-.371-.934-.2s.117.4.284.569a1.091,1.091,0,0,0,.82.295,1.409,1.409,0,0,0,.951-.295C12.084,12.081,12.136,11.741,12.075,11.68Z" transform="translate(0.897 -1.556)"/>
      <path id="Path_18" data-name="Path 18" d="M12.4,10.737a.4.4,0,1,0-.283-.117A.4.4,0,0,0,12.4,10.737Z" transform="translate(4.498 -3.098)"/>
      <path id="Path_19" data-name="Path 19" d="M12.4,10.737a.4.4,0,1,0-.283-.117A.4.4,0,0,0,12.4,10.737Z" transform="translate(7.023 -3.098)"/>
      <path id="Path_20" data-name="Path 20" d="M12.4,10.737a.4.4,0,1,0-.283-.117A.4.4,0,0,0,12.4,10.737Z" transform="translate(-6.002 -3.098)"/>
      <path id="Path_21" data-name="Path 21" d="M12.4,10.737a.4.4,0,1,0-.283-.117A.4.4,0,0,0,12.4,10.737Z" transform="translate(-8.002 -3.098)"/>
    </g>
  </g>
</svg>
