<svg xmlns="http://www.w3.org/2000/svg" xmlns:xlink="http://www.w3.org/1999/xlink" width="20" height="20" viewBox="0 0 20 20">
  <defs>
    <clipPath id="clip-path">
      <path id="Path_186" data-name="Path 186" d="M0,0H20V20H0Z" transform="translate(-1587 -839)" fill="#fff"/>
    </clipPath>
  </defs>
  <g id="Mask_Group_13" data-name="Mask Group 13" transform="translate(1587 839)" clip-path="url(#clip-path)">
    <g id="dairy-products" transform="translate(-1587 -839)">
      <g id="Group_66" data-name="Group 66">
        <g id="Group_61" data-name="Group 61">
          <path id="Path_163" data-name="Path 163" d="M14.724,18.106a1.682,1.682,0,0,1-1.68,1.6H7.736a1.682,1.682,0,0,1-1.68-1.6q-.173-3.616-.143-7.233.014-1.7.073-3.4V7.45A3.846,3.846,0,0,1,9.705,3.759q.685-.022,1.37,0a3.846,3.846,0,0,1,3.719,3.715Q14.978,12.79,14.724,18.106Z" fill="#06b457"/>
          <path id="Path_164" data-name="Path 164" d="M10.39,3.749q-.154,0-.309.011c-.912.066-1.643,1.69-1.675,3.715q-.083,5.316.032,10.632c.019.9.352,1.6.756,1.6H7.736a1.682,1.682,0,0,1-1.68-1.6Q5.8,12.79,5.986,7.474A3.847,3.847,0,0,1,9.705,3.759q.342-.011.685-.011Z" fill="#70f6aa"/>
          <path id="Path_165" data-name="Path 165" d="M10.095,10.167a.757.757,0,0,1-.714.666q-.5.025-1.007.038-1.231.034-2.462,0,.014-1.711.074-3.422h0q1.21-.03,2.42,0,.487.013.974.037a.757.757,0,0,1,.713.666A8.476,8.476,0,0,1,10.095,10.167Z" fill="#ececec"/>
          <path id="Path_166" data-name="Path 166" d="M8.407,7.455c0,.007,0,.013,0,.02q-.026,1.7-.032,3.4-1.231.034-2.462,0,.014-1.7.073-3.4V7.45Q7.2,7.42,8.407,7.455Z" fill="#dadada"/>
          <path id="Path_167" data-name="Path 167" d="M12.575,2.512H8.2A.793.793,0,0,0,8.2,4.1h4.371a.793.793,0,1,0,0-1.586Z" fill="#ececec"/>
          <path id="Path_168" data-name="Path 168" d="M9.435,3.865A.79.79,0,0,0,10,4.1H8.2a.793.793,0,1,1,0-1.586H10a.793.793,0,0,0-.561,1.353Z" fill="#dadada"/>
          <path id="Path_169" data-name="Path 169" d="M11.645.293H9.135a.93.93,0,0,0-.93.93V2.512h4.371V1.223a.93.93,0,0,0-.93-.93Z" fill="#c8b397"/>
          <path id="Path_170" data-name="Path 170" d="M10.47.293a.93.93,0,0,0-.93.93V2.512H8.2V1.223a.93.93,0,0,1,.93-.93Z" fill="#dadada"/>
        </g>
        <g id="Group_63" data-name="Group 63">
          <path id="Path_171" data-name="Path 171" d="M19.538,17.021c-.048.068-.107.545-.175.6a6.55,6.55,0,0,1-8.14,0c-.068-.054-.127-.531-.175-.6l3.275-6.515a1.086,1.086,0,0,1,1.941,0l.491.977a1.045,1.045,0,1,0,.9,1.8Z" fill="#ffd064"/>
          <path id="Path_172" data-name="Path 172" d="M19.363,18.29a6.551,6.551,0,0,1-8.14,0,.914.914,0,0,1-.246-1.127l.071-.142a.907.907,0,0,0,.175.184,6.55,6.55,0,0,0,8.14,0,.907.907,0,0,0,.175-.184l.071.142A.915.915,0,0,1,19.363,18.29Z" fill="#db5b6f"/>
          <g id="Group_62" data-name="Group 62">
            <circle id="Ellipse_38" data-name="Ellipse 38" cx="1.012" cy="1.012" r="1.012" transform="translate(15.63 15.179)" fill="#cb880a"/>
            <circle id="Ellipse_39" data-name="Ellipse 39" cx="0.658" cy="0.658" r="0.658" transform="translate(13.851 13.579)" fill="#cb880a"/>
          </g>
        </g>
        <g id="Group_65" data-name="Group 65">
          <path id="Path_173" data-name="Path 173" d="M13.245,16.037c0-1.577-1.278-4.049-2.855-4.049S7.535,14.46,7.535,16.037a2.855,2.855,0,0,0,5.709,0Z" fill="#ececec"/>
          <path id="Path_174" data-name="Path 174" d="M10.39,18.892a2.855,2.855,0,0,1-2.855-2.855c0-1.577,1.278-4.049,2.855-4.049-.764,0-1.383,2.473-1.383,4.049S9.626,18.892,10.39,18.892Z" fill="#dadada"/>
          <path id="Path_175" data-name="Path 175" d="M7.086,16.037c0-1.577-1.278-4.049-2.855-4.049S1.377,14.46,1.377,16.037a2.855,2.855,0,0,0,5.709,0Z" fill="#ececec"/>
          <path id="Path_176" data-name="Path 176" d="M4.232,18.892a2.855,2.855,0,0,1-2.855-2.855c0-1.577,1.278-4.049,2.855-4.049-.764,0-1.383,2.473-1.383,4.049S3.468,18.892,4.232,18.892Z" fill="#dadada"/>
          <path id="Path_177" data-name="Path 177" d="M13.469,16.037c0,.023,0,.045,0,.068a7.555,7.555,0,0,1-.076.934c-.091.663-.242,1.327-.338,1.991a.643.643,0,0,1-.563.549,17.115,17.115,0,0,1-2.98.1c-.39-.021-.792-.056-1.221-.1a.646.646,0,0,1-.566-.549c-.028-.192-.06-.42-.094-.664a.317.317,0,0,0-.371-.274.31.31,0,0,0-.268.274c-.034.244-.067.473-.094.664a.646.646,0,0,1-.566.549,17.176,17.176,0,0,1-4.2,0,.643.643,0,0,1-.563-.549c-.1-.664-.247-1.327-.337-1.991a7.555,7.555,0,0,1-.076-.934c0-.023,0-.045,0-.068Z" fill="#e49542"/>
          <g id="Group_64" data-name="Group 64">
            <path id="Path_178" data-name="Path 178" d="M13.469,16.1a7.554,7.554,0,0,1-.076.934H1.228a7.555,7.555,0,0,1-.076-.934Z" fill="#e28424"/>
            <path id="Path_179" data-name="Path 179" d="M3.351,19.683c-.39-.021-.792-.056-1.222-.105a.643.643,0,0,1-.563-.549,21.41,21.41,0,0,1-.413-2.992H2.539A28.98,28.98,0,0,0,3,19.161a.717.717,0,0,0,.354.522Z" fill="#e28424"/>
            <path id="Path_180" data-name="Path 180" d="M9.512,19.683c-.39-.021-.792-.056-1.221-.1a.646.646,0,0,1-.566-.549c-.028-.192-.06-.42-.094-.664a.317.317,0,0,0-.371-.274c.017-.77.055-1.546.055-2.054H8.7a28.98,28.98,0,0,0,.457,3.124.717.717,0,0,0,.353.521Z" fill="#e28424"/>
          </g>
          <path id="Path_181" data-name="Path 181" d="M13.862,16.5H.76a.467.467,0,0,1,0-.934h13.1a.467.467,0,0,1,0,.934Z" fill="#e49542"/>
          <path id="Path_182" data-name="Path 182" d="M2.412,16.5H.76a.467.467,0,0,1,0-.934H2.412a.467.467,0,1,0,0,.934Z" fill="#e28424"/>
        </g>
      </g>
      <g id="Group_67" data-name="Group 67">
        <path id="Path_183" data-name="Path 183" d="M19.546,17.188l-1.671-3.912c-.041-.082-.072-.264-.162-.28a.293.293,0,0,0-.251.072.941.941,0,0,1-.572.209.8.8,0,0,1-.75-.807.782.782,0,0,1,.594-.774.33.33,0,0,0,.224-.164.147.147,0,0,0,0-.179l-.53-.9a1.311,1.311,0,0,0-1.134-.838h0c-.051,0-.247.114-.3.119-.013-.724-.069-1.633-.094-2.344a3.769,3.769,0,0,0-.562-1.937c-.085-.138-.132-.2-.27-.114s-.122.132-.037.27a4.065,4.065,0,0,1,.586,1.855c.027.77.115,1.565.128,2.348a1.85,1.85,0,0,0-.578.641l-1.437,2.88a2.812,2.812,0,0,0-2.344-1.349C9.228,11.984,8.5,13.1,7.828,14.5l-.092.25-.187.7-.208-.078-.02-.1.02.1a6.47,6.47,0,0,0-1.135-2.523c0-.558.062-1.285.066-1.847.3.006.54,0,.844,0,.76,0,1.495.037,2.252,0a.882.882,0,0,0,.863-.874V8.193c-.061-.51-.068-.777-.581-.8-1.025-.05-2.35-.018-3.378,0a4.373,4.373,0,0,1,.369-1.656A3.634,3.634,0,0,1,8.313,4.39h4.155l.809.5v.029a.56.56,0,0,0,.192.072.292.292,0,0,0,.221-.1c.106-.122-.021-.2-.143-.31s-.533-.247-.678-.344a1.448,1.448,0,0,0,.6-.93,1.127,1.127,0,0,0-.781-1.086l.182-1A1.089,1.089,0,0,0,11.646.172H9.135A1.089,1.089,0,0,0,7.912,1.223L8,2.259A1.064,1.064,0,0,0,7.234,3.3a1.293,1.293,0,0,0,.471.93l-1.3,1.042h0l-.317.63L5.873,7.391c-.055,1.586,0,3.491,0,5.078a3.125,3.125,0,0,0-1.641-.7A2.462,2.462,0,0,0,2.328,13c-.1.129-.2.241-.068.338s.158-.032.256-.161c.28-.371,1.01-1.187,1.716-1.187a2.8,2.8,0,0,1,1.909,1.188,7.536,7.536,0,0,1,.975,2.281H1.494a8.35,8.35,0,0,1,.471-1.3c.067-.147.147-.247,0-.314s-.206-.037-.273.111a8.371,8.371,0,0,0-.576,1.5H.761c-.419,0-.76.165-.76.584a.761.761,0,0,0,.76.76H.9c.049.449.131.9.211,1.331.057.31.116.63.161.943a.937.937,0,0,0,.82.8A18.6,18.6,0,0,0,4.232,20a18.625,18.625,0,0,0,2.133-.131.936.936,0,0,0,.385-.133A1.958,1.958,0,0,0,7.736,20H10.39a18.6,18.6,0,0,0,2.136-.131.932.932,0,0,0,.53-.245,6.867,6.867,0,0,0,6.49-1.106c.444-.353.255-.822,0-1.331ZM8.313,1.223A.914.914,0,0,1,9.135.484h2.51a.742.742,0,0,1,.745.641l-.108,1.094H8.313ZM8.205,2.547h4.371c.276,0,.5.482.5.758s-.224.758-.5.758L8.205,3.984a.805.805,0,0,1-.627-.68C7.578,3.029,7.93,2.547,8.205,2.547ZM9.367,7.785a.462.462,0,0,1,.437.408,8.219,8.219,0,0,1,0,1.939.462.462,0,0,1-.438.408c-1.049.052-2.11.067-3.157.046.01-.95.031-1.9.061-2.848,1.029-.019,2.069,0,3.1.047Zm5.07,2.668a1.1,1.1,0,0,1,.857-.516h0a.946.946,0,0,1,.846.359l.516,1.055c-.435.225-.859.545-.859,1.054a1.053,1.053,0,0,0,1.161,1.156,1.833,1.833,0,0,0,.683-.2l1.609,3.743s.08-.22.078-.219c-.206.164-.353.574-.859.9a6.265,6.265,0,0,1-2.141.725,6.534,6.534,0,0,1-2.868-.139c.077-.418.212-1.153.258-1.583h.144c.419,0,.575-.268.575-.688s-.05-.656-.469-.656h-.437a10.972,10.972,0,0,0-.687-1.922ZM8.762,13.367a2.173,2.173,0,0,1,1.629-1.086,2.635,2.635,0,0,1,1.985.995,6.658,6.658,0,0,1,.828,2.178H7.736a6.634,6.634,0,0,1,1.025-2.087ZM.586,16.037c0-.1.078-.3.174-.3l13.1-.062c.1,0,.31.269.31.365s-.214.369-.31.369H.761c-.1,0-.174-.273-.174-.369Zm6.547,3.24a.934.934,0,0,0,.055-.206c.027-.192.06-.421.094-.665,0-.017,0-.026.03-.026s.027.009.03.025c.034.244.067.473.094.666a.933.933,0,0,0,.114.33A1.369,1.369,0,0,1,7.133,19.277Zm5.393.27a17.631,17.631,0,0,1-4.214.189c-.159-.018-.554-.591-.576-.748-.027-.192.034-.419,0-.663-.044-.312-.08-.3-.4-.3s-.344-.013-.388.3c-.034.244.027.472,0,.663a1.32,1.32,0,0,1-.589.637A18.105,18.105,0,0,1,2.1,19.4c-.158-.018-.217-.256-.24-.414-.047-.324-.107-.65-.165-.965-.074-.4-.15-.817-.2-1.225H13.346c-.047.409-.068.593-.143,1-.058.315-.1.871-.148,1.193A1.055,1.055,0,0,1,12.526,19.547Zm6.655-1.487A6.28,6.28,0,0,1,13.34,19.1c0-.01,0-.02.006-.03.02-.138.043-.278.067-.418a6.839,6.839,0,0,0,6-1.116.622.622,0,0,1-.232.523Z" fill="#01210d"/>
        <path id="Path_184" data-name="Path 184" d="M15.7,16.828a.981.981,0,0,0,.7.5c.08.015.17.078.25.078a1.343,1.343,0,0,0,.725-.3.917.917,0,0,0,.447-.7,1.085,1.085,0,0,0-.187-.891.9.9,0,0,0-.687-.453,1.108,1.108,0,0,0-.906.156c-.287.2-.562.376-.625.719A1.144,1.144,0,0,0,15.7,16.828Zm0-.766a.974.974,0,0,1,.344-.547,1.182,1.182,0,0,1,.516-.187,1.955,1.955,0,0,1,.219,0,1.021,1.021,0,0,1,.6.27c.109.158.294.447.259.636a1.074,1.074,0,0,1-.328.594,1.5,1.5,0,0,1-.75.281,1.21,1.21,0,0,1-.659-.281A1.45,1.45,0,0,1,15.7,16.063Z"/>
        <path id="Path_185" data-name="Path 185" d="M14.172,15.125c.058.011.282.063.34.063a.945.945,0,0,0,.537-.168.853.853,0,0,0,.311-.615.909.909,0,0,0-.066-.708.736.736,0,0,0-.559-.308.871.871,0,0,0-1.094.656c-.1.516.016.983.531,1.078Zm-.344-.954c.037-.2.4-.614.594-.577a2.153,2.153,0,0,1,.627.284.619.619,0,0,1,.092.356c-.018.1-.011.4-.092.453a2.535,2.535,0,0,1-.712.234l-.43-.234-.078-.517Z"/>
      </g>
    </g>
  </g>
</svg>
