<svg xmlns="http://www.w3.org/2000/svg" xmlns:xlink="http://www.w3.org/1999/xlink" width="20" height="20" viewBox="0 0 20 20">
  <defs>
    <clipPath id="clip-path">
      <rect id="Rectangle_110" data-name="Rectangle 110" width="20" height="20" transform="translate(-933 -385)" fill="#f8e0e0"/>
    </clipPath>
  </defs>
  <g id="Mask_Group_18" data-name="Mask Group 18" transform="translate(933 385)" clip-path="url(#clip-path)">
    <g id="Consult-Talk" transform="translate(-933.61 -385.557)">
      <path id="Path_254" data-name="Path 254" d="M18.724,14.473a4.174,4.174,0,0,1-.355.862l.908,1.21-1.406,1.406-1.21-.908a4.174,4.174,0,0,1-.862.355l-.216,1.5H13.594l-.216-1.5a4.174,4.174,0,0,1-.862-.355l-1.21.908L9.9,16.545l.908-1.21a4.174,4.174,0,0,1-.355-.862l-1.5-.216V12.268l1.5-.216a4.174,4.174,0,0,1,.355-.862L9.9,9.98l1.406-1.406.729.547.481.361a4.335,4.335,0,0,1,.414-.2,4.2,4.2,0,0,1,.448-.156l.216-1.5h1.989l.216,1.5a4.2,4.2,0,0,1,.448.156,4.336,4.336,0,0,1,.414.2l.912-.683.3-.225L19.277,9.98l-.908,1.21a4.174,4.174,0,0,1,.355.862l1.5.216v1.989Z" fill="#ffd711"/>
      <path id="Path_255" data-name="Path 255" d="M16.247,11.194a2.653,2.653,0,0,0-1.326-.564,2.739,2.739,0,0,0-.332-.02,2.653,2.653,0,0,0,0,5.305,2.732,2.732,0,0,0,.663-.083,2.653,2.653,0,0,0,.995-4.639Z" fill="#fffefb"/>
      <path id="Path_256" data-name="Path 256" d="M16.247,9.284a4.2,4.2,0,0,0-.448-.156l-.216-1.5H14.92V4.887a2.318,2.318,0,0,1,.332-4v2.1l.995.332.995-.332V.889a2.318,2.318,0,0,1,.332,4V8.8l-.912.683a4.336,4.336,0,0,0-.414-.2Z" fill="#c6c5ca"/>
      <path id="Path_257" data-name="Path 257" d="M16.247,9.284v1.91a2.653,2.653,0,0,0-1.326-.564v-3h.663l.216,1.5A4.2,4.2,0,0,1,16.247,9.284Z" fill="#ffd711"/>
      <path id="Path_258" data-name="Path 258" d="M11.6,6.963h-.663a.663.663,0,0,0-.332.09v1.9c0,.08,0,.159-.01.235a.378.378,0,0,0,.063.033.659.659,0,0,0,.279.063H11.6a.643.643,0,0,0,.431-.162.654.654,0,0,0,.232-.5V7.626A.665.665,0,0,0,11.6,6.963Z" fill="#ee8700"/>
      <path id="Path_259" data-name="Path 259" d="M13.133,15.478a3.294,3.294,0,0,0-1.625-1.389L8.952,13.064l-.332-.133a1.326,1.326,0,0,1-2.653,0L3.08,14.088A3.31,3.31,0,0,0,.995,17.165s0,.418,0,1.183,0,1.877,0,1.877h12.6v-3.06A3.313,3.313,0,0,0,13.133,15.478Z" fill="#c89ef2"/>
      <path id="Path_260" data-name="Path 260" d="M8.621,11.989v.942a1.326,1.326,0,0,1-2.653,0v-.942A3.3,3.3,0,0,0,8.621,11.989Z" fill="#ffc477"/>
      <path id="Path_261" data-name="Path 261" d="M3.979,8.952c0,.08,0,.159.01.235a.63.63,0,0,1-.342.1H2.984a.665.665,0,0,1-.663-.663V7.626a.665.665,0,0,1,.663-.663h.663a.663.663,0,0,1,.332.09Z" fill="#ee8700"/>
      <path id="Path_262" data-name="Path 262" d="M8.621,11.989v.663a3.3,3.3,0,0,1-2.653,0v-.663A3.3,3.3,0,0,0,8.621,11.989Z" fill="#ffb655"/>
      <path id="Path_263" data-name="Path 263" d="M10.61,7.052v.242h-.332a1.326,1.326,0,0,1-1.061-.531l-.6-.8L7.507,6.86a1.981,1.981,0,0,1-1.24.434H3.979V6.631a3.316,3.316,0,1,1,6.631,0Z" fill="#57565c"/>
      <path id="Path_264" data-name="Path 264" d="M10.279,7.294a1.326,1.326,0,0,1-1.061-.531l-.6-.8L7.507,6.86a1.981,1.981,0,0,1-1.24.434H3.979V8.952c0,.08,0,.159.01.235a3.313,3.313,0,0,0,5.955,1.754,2.8,2.8,0,0,0,.308-.494,3.253,3.253,0,0,0,.342-1.157v0c0-.033.007-.066.007-.1.007-.076.01-.156.01-.235V7.294Z" fill="#ffc477"/>
      <path id="Path_266" data-name="Path 266" d="M0,0H1V.737H0Z" transform="translate(5.305 8.289)"/>
      <path id="Path_267" data-name="Path 267" d="M-.073-.107h1V.63h-1Z" transform="translate(8.308 8.396)"/>
      <path id="Path_265" data-name="Path 265" d="M20.273,11.94l-1.3-.185a4.642,4.642,0,0,0-.218-.531l.784-1.045a.332.332,0,0,0-.031-.433L18.106,8.339a.328.328,0,0,0-.2-.094V5.053A2.653,2.653,0,0,0,18.9,2.984a2.625,2.625,0,0,0-1.516-2.4.332.332,0,0,0-.473.3V2.745l-.663.221-.663-.221V.889a.332.332,0,0,0-.473-.3,2.625,2.625,0,0,0-1.516,2.394,2.653,2.653,0,0,0,.995,2.069V7.294h-.995a.332.332,0,0,0-.328.285l-.215,1.5.657.094.174-1.217H15.3l.174,1.217a.332.332,0,0,0,.235.271,3.959,3.959,0,0,1,.8.327.332.332,0,0,0,.358-.026l1.219-.8.9,1.227-.874.814a.332.332,0,0,0-.026.358,3.959,3.959,0,0,1,.327.8.332.332,0,0,0,.271.235l1.6.076v1.8l-1.6-.113a.332.332,0,0,0-.271.235,3.958,3.958,0,0,1-.327.8c-.063.114.249.227.327.331l.847,1.064L17.9,17.939l-1.04-.774a.339.339,0,0,0-.363,0c-.253.138-.128-.08-.4,0-.125.036-.374.139-.393.268l-.121,1.513H13.926V17.166a3.68,3.68,0,0,0-.149-1.035,3.021,3.021,0,1,0-2.12-2.342l-.024-.01L8.952,12.707V12.2a3.677,3.677,0,0,0,1.154-.924h.836a1,1,0,0,0,.995-.995V9.554a1,1,0,0,0,.663-.934V7.626a1,1,0,0,0-.663-.934V6.3a4.642,4.642,0,1,0-9.284,0v.393a1,1,0,0,0-.663.934v.995a1,1,0,0,0,.995.995h.663c.021,0,.042,0,.063,0A3.655,3.655,0,0,0,5.637,12.2v.51L2.956,13.779A3.63,3.63,0,0,0,.663,17.166v3.06a.332.332,0,0,0,.332.332h12.6a.332.332,0,0,0,.332-.332v-.995h1.658a.332.332,0,0,0,.328-.285l.185-1.3a4.642,4.642,0,0,0,.531-.218l1.045.784a.332.332,0,0,0,.433-.031l1.407-1.407a.332.332,0,0,0,.031-.433L18.76,15.3a4.642,4.642,0,0,0,.218-.531l1.3-.185a.332.332,0,0,0,.284-.328V12.268a.332.332,0,0,0-.285-.328ZM16.625,9.092c-.016-.008-.033-.013-.049-.02v-4.1l-.33.08L16.222,8.1l-.08-.146c-.023-.163-.393-.663-.558-.663h-.332V4.887a.332.332,0,0,0-.142-.272A1.989,1.989,0,0,1,14.92,1.5V2.984a.332.332,0,0,0,.227.315l.995.332a.332.332,0,0,0,.21,0l.995-.332a.332.332,0,0,0,.227-.315V1.5a1.989,1.989,0,0,1-.189,3.117.332.332,0,0,0-.142.271V8.632Zm-4.357,4.17a2.338,2.338,0,1,1,1.105,1.97,3.619,3.619,0,0,0-.866-.954,2.267,2.267,0,0,1-.239-1.016ZM10.942,10.61h-.4a3.614,3.614,0,0,0,.34-1c.021,0,.041,0,.063,0h.332v.663A.332.332,0,0,1,10.942,10.61Zm-.663-3.647a1,1,0,0,1-.8-.4l-.6-.8a.332.332,0,0,0-.223-.13.335.335,0,0,0-.249.07L7.3,6.6a1.664,1.664,0,0,1-1.034.365H4.31V6.631a2.984,2.984,0,1,1,5.968,0Zm1.658,1.658a.332.332,0,0,1-.332.332h-.663V7.294H11.6a.332.332,0,0,1,.332.332Zm-4.642-6.3A3.983,3.983,0,0,1,11.273,6.3v.332h-.332a3.647,3.647,0,0,0-7.294,0H3.316V6.3A3.983,3.983,0,0,1,7.294,2.321ZM2.984,8.952a.332.332,0,0,1-.332-.332V7.626a.332.332,0,0,1,.332-.332h.663V8.952Zm1.326,0V7.626H6.267a2.329,2.329,0,0,0,1.45-.509l.846-.677.39.522a1.666,1.666,0,0,0,1.326.663V8.952a3.024,3.024,0,0,1-.559,1.658l-.84.119v-.45H7.3l-.006.995H9.166a3.135,3.135,0,0,1-1.871.924,3.744,3.744,0,0,1-1.372-.405A3.129,3.129,0,0,1,4.31,8.952ZM7.294,12.6a6.033,6.033,0,0,0,1.268-.261v.719a1.41,1.41,0,0,1-1.268,1.156A1.321,1.321,0,0,1,6.11,13.057v-.6a5.119,5.119,0,0,0,1.184.141Zm5.968,7.294H11.273V16.247H10.61v3.647H3.979V16.247H3.316v3.647H1.326V17.166A2.97,2.97,0,0,1,3.2,14.395l2.508-1a1.647,1.647,0,0,0,3.169,0l2.508,1a2.97,2.97,0,0,1,1.876,2.771Z" fill="#022100"/>
      <rect id="Rectangle_113" data-name="Rectangle 113" width="0.663" height="0.663" transform="translate(14.257 8.621)"/>
      <rect id="Rectangle_114" data-name="Rectangle 114" width="0.663" height="0.663" transform="translate(14.257 17.241)"/>
      <rect id="Rectangle_115" data-name="Rectangle 115" width="0.663" height="0.663" transform="translate(17.168 16.311) rotate(-45)"/>
      <rect id="Rectangle_116" data-name="Rectangle 116" width="0.663" height="0.663" transform="translate(18.568 12.931)"/>
      <rect id="Rectangle_117" data-name="Rectangle 117" width="0.663" height="0.663" transform="translate(17.168 10.215) rotate(-45)"/>
    </g>
  </g>
</svg>
