<svg xmlns="http://www.w3.org/2000/svg" width="23" height="15.165" viewBox="0 0 23 15.165">
  <path id="Icon_ionic-ios-arrow-round-back" data-name="Icon ionic-ios-arrow-round-back" d="M15.852,11.52a.922.922,0,0,1,.008,1.342L11.221,17.3H28.9a.949.949,0,1,1,0,1.9H11.221l4.646,4.44a.928.928,0,0,1-.008,1.342,1.023,1.023,0,0,1-1.4-.007l-6.3-6.052h0a1.062,1.062,0,0,1-.206-.3.869.869,0,0,1-.076-.365.928.928,0,0,1,.283-.663l6.3-6.052A1.006,1.006,0,0,1,15.852,11.52Z" transform="translate(-7.382 -10.664)" fill="#5f29f6" stroke="#5f29f6" stroke-width="1"/>
</svg>
