<svg xmlns="http://www.w3.org/2000/svg" xmlns:xlink="http://www.w3.org/1999/xlink" width="20" height="21" viewBox="0 0 20 21">
  <defs>
    <clipPath id="clip-path">
      <rect id="Rectangle_103" data-name="Rectangle 103" width="20" height="21" transform="translate(-1084 -494.971)" fill="#564e4e"/>
    </clipPath>
  </defs>
  <g id="Mask_Group_14" data-name="Mask Group 14" transform="translate(1084 494.971)" clip-path="url(#clip-path)">
    <g id="shopping-cart" transform="translate(-1084 -492.891)">
      <path id="Path_187" data-name="Path 187" d="M13.767,9.96l-5.74,1.429L7.4,5.564l4.46-1.11Z" transform="translate(-0.175 -3.329)" fill="#fe7058"/>
      <path id="Path_188" data-name="Path 188" d="M13.767,9.961l-.7.174L11.365,5.208l-3.9.97L7.4,5.563l4.459-1.109Z" transform="translate(-0.175 -3.329)" fill="#ea6453"/>
      <path id="Path_189" data-name="Path 189" d="M8.882,6.485a.142.142,0,0,1-.136-.114l-.335-1.5A1.213,1.213,0,0,1,9.263,3.42a1.144,1.144,0,0,1,1.378.9l.334,1.5a.148.148,0,0,1-.1.178.14.14,0,0,1-.169-.11l-.335-1.5a.864.864,0,0,0-1.04-.679.916.916,0,0,0-.643,1.1l.335,1.5a.148.148,0,0,1-.1.177.138.138,0,0,1-.032,0Z" transform="translate(-0.175 -3.387)" fill="#323c6b"/>
      <path id="Path_190" data-name="Path 190" d="M8.027,11.544a.143.143,0,0,1-.14-.131L7.262,5.588a.147.147,0,0,1,.107-.161l4.46-1.111a.139.139,0,0,1,.164.093L13.9,9.916a.155.155,0,0,1-.008.121.141.141,0,0,1-.091.074l-5.739,1.43a.136.136,0,0,1-.032,0ZM7.554,5.685l.595,5.531,5.433-1.354-1.81-5.227Z" transform="translate(-0.175 -3.336)" fill="#323c6b"/>
      <path id="Path_191" data-name="Path 191" d="M0,0,4.218.035l.026,3.276L.026,3.276Z" transform="translate(13.701 2.901) rotate(8.681)" fill="#fcd462"/>
      <path id="Path_192" data-name="Path 192" d="M17.565,10.2l-.02,0-4.164-.67a.147.147,0,0,1-.117-.168l.469-3.241a.149.149,0,0,1,.056-.1.133.133,0,0,1,.1-.027l4.161.67a.147.147,0,0,1,.117.169L17.7,10.075a.143.143,0,0,1-.138.125Zm-4-.942,3.886.626.427-2.948-3.886-.626Z" transform="translate(-0.175 -3.243)" fill="#323c6b"/>
      <path id="Path_193" data-name="Path 193" d="M0,0,4.879.04l.008,1L.008,1Z" transform="translate(13.519 1.856) rotate(8.681)" fill="#fcd462"/>
      <path id="Path_194" data-name="Path 194" d="M18.36,7.066l-.021,0-4.814-.775a.147.147,0,0,1-.117-.169l.144-.993A.141.141,0,0,1,13.71,5l4.816.775a.147.147,0,0,1,.117.169L18.5,6.94a.143.143,0,0,1-.138.125ZM13.705,6.019l4.537.731.1-.7-4.538-.731Z" transform="translate(-0.175 -3.298)" fill="#323c6b"/>
      <path id="Path_195" data-name="Path 195" d="M16.1,5.725l-.021,0c-.671-.108-1.195-.217-1.329-.549a.586.586,0,0,1,.107-.552.427.427,0,0,1,.4-.227c.461.039.891.938.972,1.118a.155.155,0,0,1-.008.143.139.139,0,0,1-.119.069Zm-.88-1.035c-.026,0-.074.011-.134.1s-.109.191-.079.266c.066.162.476.261.837.325-.184-.333-.437-.68-.613-.694Z" transform="translate(-0.175 -3.332)" fill="#323c6b"/>
      <path id="Path_196" data-name="Path 196" d="M16.91,5.8a5.6,5.6,0,0,1-.836-.091.142.142,0,0,1-.111-.1.154.154,0,0,1,.03-.149c.129-.146.794-.867,1.244-.761a.445.445,0,0,1,.316.342A.588.588,0,0,1,17.5,5.6.719.719,0,0,1,16.91,5.8Zm-.517-.341c.362.051.783.086.892-.048.05-.062.028-.186,0-.279-.037-.125-.09-.138-.11-.143C17,4.946,16.664,5.2,16.394,5.458Z" transform="translate(-0.175 -3.316)" fill="#323c6b"/>
      <path id="Path_197" data-name="Path 197" d="M0,0,.917.008.95,4.282.033,4.274Z" transform="translate(15.474 2.176) rotate(8.681)" fill="#fe7058"/>
      <path id="Path_198" data-name="Path 198" d="M15.936,9.976l-.021,0-.9-.146a.147.147,0,0,1-.117-.169L15.5,5.43a.141.141,0,0,1,.159-.124l.9.146a.147.147,0,0,1,.117.169l-.612,4.231A.143.143,0,0,1,15.936,9.976Zm-.746-.418.628.1.57-3.936-.628-.1Z" transform="translate(-0.175 -3.282)" fill="#323c6b"/>
      <path id="Path_199" data-name="Path 199" d="M16.429,12,10.695,13.35l-.607-3.175,5.734-1.345Z" transform="translate(-0.175 -3.087)" fill="#27ccbc"/>
      <path id="Path_200" data-name="Path 200" d="M10.695,13.505a.142.142,0,0,1-.137-.118L9.95,10.212a.148.148,0,0,1,.107-.174l5.735-1.345a.134.134,0,0,1,.107.02.148.148,0,0,1,.061.1l.607,3.175a.148.148,0,0,1-.107.174L10.725,13.5a.135.135,0,0,1-.03,0Zm-.442-3.21L10.8,13.18,16.265,11.9l-.551-2.885Z" transform="translate(-0.175 -3.094)" fill="#d5d6db"/>
      <path id="Path_201" data-name="Path 201" d="M18.327,15.777H7.43L5.866,7.447H19.614Z" transform="translate(-0.175 -3.163)" fill="#c2f2c2"/>
      <path id="Path_202" data-name="Path 202" d="M19.613,7.447l-1.286,8.332h-.973l1.135-7.356H6.048l-.182-.976Z" transform="translate(-0.175 -3.163)" fill="#9ee8a8"/>
      <path id="Path_203" data-name="Path 203" d="M9.58,14.543,9.131,8.684" transform="translate(-0.175 -3.095)" fill="#84879c"/>
      <path id="Path_204" data-name="Path 204" d="M9.58,14.7a.143.143,0,0,1-.14-.136L8.991,8.7a.146.146,0,0,1,.129-.16.143.143,0,0,1,.151.136l.448,5.858a.146.146,0,0,1-.128.159Z" transform="translate(-0.175 -3.102)" fill="#9ea1ae"/>
      <path id="Path_205" data-name="Path 205" d="M11.765,14.543l-.15-5.858" transform="translate(-0.175 -3.095)" fill="#84879c"/>
      <path id="Path_206" data-name="Path 206" d="M11.765,14.7a.144.144,0,0,1-.14-.144L11.475,8.7a.14.14,0,1,1,.28-.008l.151,5.858a.145.145,0,0,1-.136.152Z" transform="translate(-0.175 -3.102)" fill="#9ea1ae"/>
      <path id="Path_207" data-name="Path 207" d="M14.1,8.684l-.15,5.858" transform="translate(-0.175 -3.095)" fill="#84879c"/>
      <path id="Path_208" data-name="Path 208" d="M13.949,14.7h0a.145.145,0,0,1-.136-.152l.151-5.858a.14.14,0,1,1,.28.008l-.151,5.858A.144.144,0,0,1,13.949,14.7Z" transform="translate(-0.175 -3.102)" fill="#9ea1ae"/>
      <path id="Path_209" data-name="Path 209" d="M16.584,8.684l-.449,5.858" transform="translate(-0.175 -3.095)" fill="#84879c"/>
      <path id="Path_210" data-name="Path 210" d="M16.135,14.7h-.011A.146.146,0,0,1,16,14.539l.448-5.858a.143.143,0,0,1,.151-.136.146.146,0,0,1,.129.16l-.448,5.858A.143.143,0,0,1,16.135,14.7Z" transform="translate(-0.175 -3.102)" fill="#9ea1ae"/>
      <path id="Path_211" data-name="Path 211" d="M18.327,15.933H7.43a.142.142,0,0,1-.137-.118L5.728,7.483a.154.154,0,0,1,.029-.123.137.137,0,0,1,.109-.054H19.614a.137.137,0,0,1,.107.052.154.154,0,0,1,.032.12l-1.286,8.331a.143.143,0,0,1-.138.125Zm-10.782-.3H18.208L19.449,7.6H6.036Z" transform="translate(-0.175 -3.171)" fill="#323c6b"/>
      <path id="Path_212" data-name="Path 212" d="M17.975,18.082H16.729V17.2h1.247a.444.444,0,0,1,0,.887Z" transform="translate(-0.175 -2.624)" fill="#e1e6e9"/>
      <path id="Path_213" data-name="Path 213" d="M17.975,18.238H16.729a.144.144,0,0,1-.14-.148V17.2a.144.144,0,0,1,.14-.148h1.247a.592.592,0,0,1,0,1.183Zm-1.107-.3h1.107a.3.3,0,0,0,0-.592H16.869Z" transform="translate(-0.175 -2.632)" fill="#323c6b"/>
      <path id="Path_214" data-name="Path 214" d="M10.37,17.2h4.978v.887H10.37Z" transform="translate(-0.175 -2.624)" fill="#e1e6e9"/>
      <path id="Path_215" data-name="Path 215" d="M15.348,18.238H10.37a.144.144,0,0,1-.14-.148V17.2a.144.144,0,0,1,.14-.148h4.978a.144.144,0,0,1,.14.148v.887a.144.144,0,0,1-.14.148Zm-4.837-.3h4.7v-.592h-4.7Z" transform="translate(-0.175 -2.632)" fill="#323c6b"/>
      <path id="Path_216" data-name="Path 216" d="M9.619,18.744l.036-.887h-1a.838.838,0,0,1-.773-.7L5.844,6.589a1.712,1.712,0,0,0-1.65-1.422H2.785v.887h1.41a.856.856,0,0,1,.826.71L7.057,17.332a1.691,1.691,0,0,0,1.561,1.411Z" transform="translate(-0.175 -3.289)" fill="#e1e6e9"/>
      <path id="Path_217" data-name="Path 217" d="M9.619,18.9h-1a1.834,1.834,0,0,1-1.7-1.53L4.883,6.8a.714.714,0,0,0-.688-.592H2.785a.144.144,0,0,1-.14-.148V5.176a.144.144,0,0,1,.14-.148H4.2a1.855,1.855,0,0,1,1.787,1.54L8.018,17.137a.7.7,0,0,0,.642.581h.995a.137.137,0,0,1,.1.045.153.153,0,0,1,.039.109l-.036.887A.144.144,0,0,1,9.619,18.9ZM2.925,5.914H4.2a1,1,0,0,1,.963.828L7.194,17.31A1.549,1.549,0,0,0,8.623,18.6h.861l.024-.592H8.653a.981.981,0,0,1-.911-.819L5.707,6.626a1.57,1.57,0,0,0-1.513-1.3H2.924Z" transform="translate(-0.175 -3.297)" fill="#323c6b"/>
      <ellipse id="Ellipse_40" data-name="Ellipse 40" cx="1.411" cy="1.489" rx="1.411" ry="1.489" transform="translate(8.43 13.764)" fill="#707583"/>
      <path id="Path_218" data-name="Path 218" d="M10.015,19.564a1.639,1.639,0,1,1,1.553-1.638,1.6,1.6,0,0,1-1.553,1.638Zm0-2.978a1.343,1.343,0,1,0,1.272,1.34,1.308,1.308,0,0,0-1.272-1.34Z" transform="translate(-0.175 -2.674)" fill="#323c6b"/>
      <ellipse id="Ellipse_41" data-name="Ellipse 41" cx="0.647" cy="0.683" rx="0.647" ry="0.683" transform="translate(9.194 14.57)" fill="#bbbbcd"/>
      <path id="Path_219" data-name="Path 219" d="M10.016,18.716a.832.832,0,1,1,.788-.831A.81.81,0,0,1,10.016,18.716Zm0-1.365a.536.536,0,1,0,.508.534.55.55,0,0,0-.149-.378.493.493,0,0,0-.359-.156Z" transform="translate(-0.175 -2.632)" fill="#323c6b"/>
      <path id="Path_220" data-name="Path 220" d="M2.958,6.524H1.019a.891.891,0,0,1,0-1.78H2.958a.891.891,0,0,1,0,1.78ZM1.019,5.04a.6.6,0,0,0,0,1.188H2.958a.6.6,0,0,0,0-1.188Z" transform="translate(-0.175 -3.313)" fill="#323c6b"/>
      <ellipse id="Ellipse_42" data-name="Ellipse 42" cx="1.411" cy="1.489" rx="1.411" ry="1.489" transform="translate(14.626 13.764)" fill="#707583"/>
      <path id="Path_221" data-name="Path 221" d="M16.211,19.564a1.639,1.639,0,1,1,1.553-1.638,1.6,1.6,0,0,1-1.553,1.638Zm0-2.978a1.343,1.343,0,1,0,1.272,1.34,1.308,1.308,0,0,0-1.272-1.34Z" transform="translate(-0.175 -2.674)" fill="#323c6b"/>
      <path id="Path_222" data-name="Path 222" d="M2.958,4.884H1.019a.743.743,0,0,0,0,1.484H2.958a.743.743,0,0,0,0-1.484Z" transform="translate(-0.175 -3.305)" fill="#707583"/>
      <path id="Path_223" data-name="Path 223" d="M2.958,6.524H1.019a.891.891,0,0,1,0-1.78H2.958a.891.891,0,0,1,0,1.78ZM1.019,5.04a.6.6,0,0,0,0,1.188H2.958a.6.6,0,0,0,0-1.188Z" transform="translate(-0.175 -3.313)" fill="#323c6b"/>
      <ellipse id="Ellipse_43" data-name="Ellipse 43" cx="0.647" cy="0.683" rx="0.647" ry="0.683" transform="translate(15.39 14.57)" fill="#bbbbcd"/>
      <g id="Group_68" data-name="Group 68" transform="translate(15.25 14.423)">
        <path id="Path_224" data-name="Path 224" d="M16.212,18.716A.832.832,0,1,1,17,17.885.81.81,0,0,1,16.212,18.716Zm0-1.365a.536.536,0,1,0,.507.534A.521.521,0,0,0,16.212,17.351Z" transform="translate(-15.426 -17.055)" fill="#323c6b"/>
      </g>
    </g>
  </g>
</svg>
