<svg xmlns="http://www.w3.org/2000/svg" xmlns:xlink="http://www.w3.org/1999/xlink" width="20" height="20" viewBox="0 0 20 20">
  <defs>
    <clipPath id="clip-path">
      <rect id="Rectangle_107" data-name="Rectangle 107" width="20" height="20" transform="translate(-1029 -368)" fill="#eee8e8"/>
    </clipPath>
  </defs>
  <g id="Mask_Group_17" data-name="Mask Group 17" transform="translate(1029 368)" clip-path="url(#clip-path)">
    <g id="build" transform="translate(-1029 -368)">
      <rect id="Rectangle_108" data-name="Rectangle 108" width="4.893" height="2.731" transform="translate(5.67 16.966)" fill="#f23466"/>
      <path id="SVGCleanerId_0" d="M2.189,16.966H5.67V19.7h-4.5A.394.394,0,0,1,.777,19.3V17.36a.394.394,0,0,1,.394-.394h0" fill="#f23466"/>
      <path id="SVGCleanerId_1" d="M15.062,19.7h-4.5V16.966h4.5a.394.394,0,0,1,.394.394V19.3A.394.394,0,0,1,15.062,19.7Z" fill="#f23466"/>
      <rect id="Rectangle_109" data-name="Rectangle 109" width="4.893" height="2.798" transform="translate(5.67 16.899)" fill="#1cb179"/>
      <g id="Group_90" data-name="Group 90">
        <path id="SVGCleanerId_0_1_" d="M2.189,16.966H5.67V19.7h-4.5A.394.394,0,0,1,.777,19.3V17.36a.394.394,0,0,1,.394-.394h0" fill="#34f28d"/>
      </g>
      <g id="Group_91" data-name="Group 91">
        <path id="SVGCleanerId_1_1_" d="M15.062,19.7h-4.5V16.966h4.5a.394.394,0,0,1,.394.394V19.3A.394.394,0,0,1,15.062,19.7Z" fill="#34f28d"/>
      </g>
      <path id="Path_241" data-name="Path 241" d="M15.062,16.966h-.214v1.728a.394.394,0,0,1-.394.394H.777V19.3a.394.394,0,0,0,.394.394h13.89a.394.394,0,0,0,.394-.394V17.36A.394.394,0,0,0,15.062,16.966Z" opacity="0.1"/>
      <path id="Path_242" data-name="Path 242" d="M9.348,14.155h3.258a.4.4,0,0,1,.4.4v2.049a.4.4,0,0,1-.4.4H8.117V14.155H9.348Z" fill="#1cb179"/>
      <path id="Path_243" data-name="Path 243" d="M12.606,14.155h-.02v2.029a.4.4,0,0,1-.4.4H8.117v.424h4.489a.4.4,0,0,0,.4-.4V14.558A.4.4,0,0,0,12.606,14.155Z" opacity="0.1"/>
      <path id="Path_244" data-name="Path 244" d="M8.909,12.491l-2.635.968a.162.162,0,0,1-.207-.207l.968-2.635,1.2-1.2,1.874,1.874Z" fill="#f9c5b5"/>
      <g id="Group_92" data-name="Group 92">
        <path id="Path_245" data-name="Path 245" d="M17.225,4.175,8.909,12.491l-.578-1.3-1.3-.578L15.35,2.3Z" fill="#ffc433"/>
        <path id="Path_246" data-name="Path 246" d="M17.225,4.175,8.909,12.491l-.578-1.3-1.3-.578L15.35,2.3Z" fill="#ffc433"/>
      </g>
      <g id="Group_93" data-name="Group 93">
        <path id="Path_247" data-name="Path 247" d="M18.312,3.088l-1.1,1.169L15.333,2.37l1.1-1.157Z" fill="#e3e3e3"/>
        <path id="Path_248" data-name="Path 248" d="M18.312,3.088l-1.1,1.038L15.333,2.251l1.1-1.038Z" fill="#e3e3e3"/>
      </g>
      <path id="SVGCleanerId_2" d="M18.989,2.411l-.93.93L16.185,1.467l.93-.93a.8.8,0,0,1,1.13,0l.744.744A.8.8,0,0,1,18.989,2.411Z" fill="#f23466"/>
      <g id="Group_94" data-name="Group 94">
        <path id="SVGCleanerId_2_1_" d="M18.989,2.411l-.93.93L16.185,1.467l.93-.93a.8.8,0,0,1,1.13,0l.744.744A.8.8,0,0,1,18.989,2.411Z" fill="#f234c6"/>
      </g>
      <path id="Path_249" data-name="Path 249" d="M6.275,13.458l1.495-.549L6.616,11.756l-.549,1.495A.162.162,0,0,0,6.275,13.458Z" fill="#342e30"/>
      <path id="Path_250" data-name="Path 250" d="M6.1,13.422a.16.16,0,0,0,.17.037L8.9,12.491,16.788,4.6l.427-.427.834-.834.253-.253.677-.677a.8.8,0,0,0,0-1.13L18.607.909l-.924.924Z" opacity="0.1"/>
      <path id="Path_251" data-name="Path 251" d="M15.456,16.663H13.312V14.235a.3.3,0,0,0-.3-.3H9.348a.3.3,0,1,0,0,.606h3.358v2.125H8.42V14.235a.3.3,0,0,0-.606,0v2.428H3.527v-.38a.3.3,0,0,0-.606,0v.38H2.189a.3.3,0,1,0,0,.606H5.367v2.125H1.08V17.269h.091a.3.3,0,1,0,0-.606H.777a.3.3,0,0,0-.3.3V19.7a.3.3,0,0,0,.3.3H15.456a.3.3,0,0,0,.3-.3V16.966A.3.3,0,0,0,15.456,16.663Zm-9.483.606H10.26v2.125H5.973Zm9.18,2.125H10.866V17.269h4.287v2.125Z" fill="#09013d"/>
      <path id="Path_252" data-name="Path 252" d="M3.224,15.177a.3.3,0,0,0,.3-.3v-.335H5.24a.3.3,0,0,0,0-.606H3.224a.3.3,0,0,0-.3.3v.638A.3.3,0,0,0,3.224,15.177Z"/>
      <path id="Path_253" data-name="Path 253" d="M19.2,1.066,18.459.322a1.1,1.1,0,0,0-1.559,0l-.93.93-.834.834L6.821,10.4l0,0-.022.025h0a.3.3,0,0,0-.02.029l0,.005-.013.024,0,.011-.005.012L5.733,13.578c-.041.111-.083.132,0,.215.058.058.095,0,.174,0,.035,0,.111-.062.145-.074l2.963-.944.005,0,.015-.006.013-.006.012-.007.014-.009.01-.007.015-.011.008-.007.014-.013,0,0L17.439,4.39l.834-.834.93-.93h0A1.1,1.1,0,0,0,19.2,1.066ZM15.233,2.405l.875.938h0L8.326,10.938,7.186,10.43ZM7.8,12.775,6.688,11.8l.3-.859,1.117.487L8.547,12.5Zm-1.234-.7,1,.828-1.509.568Zm2.536.249L8.547,11.14l7.738-7.585h0l.807.725Zm8.341-8.344-1.066-.766L15.5,2.087l.472-.463,1.84,1.931ZM18.775,2.2l-.744,1.021L16.285,1.39,17.329.751a.5.5,0,0,1,.7,0l.744.744A.5.5,0,0,1,18.775,2.2Z"/>
    </g>
  </g>
</svg>
