<svg id="Component_14_1" data-name="Component 14 – 1" xmlns="http://www.w3.org/2000/svg" width="16.659" height="21.966" viewBox="0 0 16.659 21.966">
  <path id="Subtraction_107" data-name="Subtraction 107" d="M13.282,13.018H2.111L0,0H15.478l-2.2,13.017Zm-5.389-12a.5.5,0,0,0-.5.5v10a.5.5,0,1,0,1,0v-10A.5.5,0,0,0,7.893,1.018Zm2.217,3.01a.5.5,0,0,0-.5.456L9,11.457A.5.5,0,0,0,9.457,12L9.5,12a.5.5,0,0,0,.5-.456l.61-6.974a.5.5,0,0,0-.455-.541H10.11Zm-4.433,0-.042,0a.5.5,0,0,0-.342.177.492.492,0,0,0-.115.364l.61,6.974a.5.5,0,0,0,.5.456l.043,0a.5.5,0,0,0,.455-.542L6.174,4.484A.5.5,0,0,0,5.676,4.027ZM2.53,2.109a1.008,1.008,0,0,0-.175.015,1,1,0,0,0-.812,1.158l1.39,7.879a1,1,0,0,0,.983.826.957.957,0,0,0,.176-.015A1,1,0,0,0,4.9,10.813L3.513,2.935A1,1,0,0,0,2.53,2.109ZM13,2.071a1,1,0,0,0-.984.826l-1.389,7.879a1,1,0,0,0,.811,1.158.985.985,0,0,0,.175.015,1,1,0,0,0,.983-.826l1.39-7.879a1,1,0,0,0-.811-1.158A1.15,1.15,0,0,0,13,2.071Z" transform="translate(0.467 8.948)" fill="#df2b2b"/>
  <path id="Subtraction_101" data-name="Subtraction 101" d="M2,2H1V1A1,1,0,0,1,2,0H6A1,1,0,0,1,7,1V2H6V1.5A.5.5,0,0,0,5.5,1h-3a.5.5,0,0,0-.5.5V2Z" transform="translate(5.443 -0.342) rotate(20)" fill="#780000"/>
  <path id="Subtraction_102" data-name="Subtraction 102" d="M21,2H4A2,2,0,0,1,6,0H19a2,2,0,0,1,2,2Z" transform="translate(-3.074 -1.078) rotate(20)" fill="#8d0a0a"/>
  <path id="Subtraction_111" data-name="Subtraction 111" d="M10.809,3.326H9.149l-.082-.014,0,.014H2.643l-.285-.742L2.5,2.463l-.055-.227.821-.447a2.658,2.658,0,0,1,.2-.288,1.839,1.839,0,0,1,.9-.663c.177-.33.4-.512.635-.512.452,0,.838.654.962,1.628l.3-.165a2.8,2.8,0,0,1,.2-.288,1.845,1.845,0,0,1,.9-.663c.177-.33.4-.512.635-.512.295,0,.572.287.761.787A1.584,1.584,0,0,1,9.449.853a.881.881,0,0,1,.635-.4.45.45,0,0,1,.078.007c.46.081.731.852.658,1.876l.173.081-.068.229.134.107-.25.573Z" transform="translate(-0.14 5.641)" fill="#0f6000"/>
</svg>
