<svg xmlns="http://www.w3.org/2000/svg" xmlns:xlink="http://www.w3.org/1999/xlink" width="20" height="20" viewBox="0 0 20 20">
  <defs>
    <style>
      .cls-1 {
        fill: #fff;
      }

      .cls-1, .cls-5 {
        stroke: #707070;
      }

      .cls-2 {
        clip-path: url(#clip-path);
      }

      .cls-3, .cls-4, .cls-5, .cls-6 {
        fill: #14b508;
      }

      .cls-3 {
        stroke: #04470f;
      }

      .cls-3, .cls-4, .cls-7 {
        stroke-width: 0.7px;
      }

      .cls-4 {
        stroke: #004a05;
      }

      .cls-5 {
        stroke-width: 0.5px;
      }

      .cls-6 {
        stroke: #045404;
        stroke-width: 0.8px;
      }

      .cls-7 {
        fill: #a3e2f3;
        stroke: #015701;
      }

      .cls-8 {
        fill: none;
      }
    </style>
    <clipPath id="clip-path">
      <rect id="Rectangle_44" data-name="Rectangle 44" class="cls-1" width="20" height="20" transform="translate(-623 -281)"/>
    </clipPath>
  </defs>
  <g id="Mask_Group_5" data-name="Mask Group 5" class="cls-2" transform="translate(623 281)">
    <g id="worldwide" transform="translate(-621.911 -279.965)">
      <g id="Group_16" data-name="Group 16" transform="translate(0.757 0.763)">
        <path id="Path_48" data-name="Path 48" class="cls-3" d="M17,3.335,16,4l-1.666-.333-1-.333L12,3.668l-1-.333L11.667,2H13l1.306-.653A9.56,9.56,0,0,1,17,3.335Z" transform="translate(-2.524 -1.035)"/>
        <path id="Path_49" data-name="Path 49" class="cls-4" d="M10,1.985l-.36.983L8.56,3.295,7.479,4.932l-1.8.983-2.521.328v.983l.72.655V9.19L2.8,8.535,1.716,7.88,1.089,6.167A10.035,10.035,0,0,1,6.816,1.035l1.023.622Z" transform="translate(-1.089 -1.035)"/>
        <path id="Path_50" data-name="Path 50" class="cls-5" d="M10.243,11.279,9.9,12.915,8.519,14.224v.982l-1.379.982v1.636L6.106,17.5l-.69-1.636V12.588l-1.724-.327L3,10.952V9.97l.69-.655,1.034-.982.69,1.309H7.83l1.034,1.636Z" transform="translate(-1.332 -2.126)"/>
        <path id="Path_51" data-name="Path 51" class="cls-6" d="M18.247,5.259a9.309,9.309,0,0,1-.52,9.975l-.878-.872V13.069L16.2,11.776l-.651-1.292V9.191l-.976-.646-1.3.323L10.993,7.9l-.325-2.262.976-.969h1.952l.651.969L16.2,5.96l1.952-.646Z" transform="translate(-2.696 -1.798)"/>
      </g>
      <path id="Path_52" data-name="Path 52" class="cls-7" d="M10.837,3.288l1.2-.3.9.3,1.5.3.9-.591a8.442,8.442,0,0,1,1.29,1.721l-.09.05-1.8.591-1.8-.3-.6-.886h-1.8l-.9.886.3,2.067,2.1.886,1.2-.3.9.591V9.489l.6,1.181.6,1.181v1.181l.81.8A8.79,8.79,0,0,1,4.022,15.888,8.484,8.484,0,0,1,1.014,5.582l.522,1.544.9.591.9.591-.6.591v.886l.6,1.181,1.5.3v2.953l.6,1.476.9.3V14.509l1.2-.886v-.886l1.2-1.181.3-1.476h-1.2L6.937,8.6h-2.1l-.6-1.181-.9.886V7.127l-.6-.591V5.65l2.1-.3,1.5-.886.9-1.476.9-.3.3-.886-1.8-.3L5.785.955a8.829,8.829,0,0,1,7.129.278l-1.176.579h-1.2l-.6,1.181Z" transform="translate(-0.032 0.05)"/>
      <path id="Path_53" data-name="Path 53" class="cls-8" d="M8.864,18.036A8.94,8.94,0,0,0,17.727,9.02,8.94,8.94,0,0,0,8.867,0,8.859,8.859,0,0,0,.719,5.47l-.11.037.043.131a9.066,9.066,0,0,0,4.88,11.737A8.726,8.726,0,0,0,8.864,18.036Zm6.954-4.47-.456-.463V12.024a.306.306,0,0,0-.03-.134L14.181,9.549V8.418a.3.3,0,0,0-.131-.25l-.886-.6a.291.291,0,0,0-.236-.041L11.842,7.8l-1.823-.8L9.768,5.217l.7-.707h1.492l.5.768a.3.3,0,0,0,.2.13l1.772.3a.288.288,0,0,0,.142-.011L16.2,5.143a8.512,8.512,0,0,1-.384,8.422h0ZM14.6,2.964l-.48.326L12.78,3.017l-.869-.294a.285.285,0,0,0-.165-.007L10.648,3l-.481-.163.357-.726h1a.293.293,0,0,0,.132-.032l1.022-.52A8.306,8.306,0,0,1,14.6,2.964ZM5.629,1.274l.709.481a.294.294,0,0,0,.115.046l1.431.243-.14.425L7,2.723a.3.3,0,0,0-.16.13L5.991,4.292l-1.363.832-2.009.292a.3.3,0,0,0-.254.3v.9a.3.3,0,0,0,.087.212l.5.513v.516L1.727,7.022,1.282,5.662A8.391,8.391,0,0,1,5.629,1.274Zm-.841,9.854-1.335-.272-.5-1.007V9.143l1.1-1.12.407.829a.3.3,0,0,0,.264.166h1.9l.8,1.357a.294.294,0,0,0,.253.146H8.5L8.3,11.576,7.178,12.714a.3.3,0,0,0-.087.213v.751l-1.063.811a.3.3,0,0,0-.118.24v1.086l-.367-.124-.519-1.32V11.423A.3.3,0,0,0,4.788,11.129ZM.954,6.561,1.2,7.31a.3.3,0,0,0,.116.155l1.472,1-.336.342a.3.3,0,0,0-.087.213v.9a.307.307,0,0,0,.031.134l.591,1.2a.3.3,0,0,0,.207.16l1.241.252v2.759a.306.306,0,0,0,.021.112l.591,1.5a.3.3,0,0,0,.181.173l.886.3a.281.281,0,0,0,.092.016.3.3,0,0,0,.3-.3V14.88l1.063-.811a.3.3,0,0,0,.118-.24v-.777l1.1-1.114a.3.3,0,0,0,.081-.154l.3-1.5a.3.3,0,0,0-.232-.354.286.286,0,0,0-.058-.006H7.85l-.8-1.357A.294.294,0,0,0,6.8,8.418H4.911L4.4,7.382a.3.3,0,0,0-.217-.162A.286.286,0,0,0,3.93,7.3l-.383.389V7.215A.3.3,0,0,0,3.46,7l-.5-.513V5.973L4.77,5.71a.29.29,0,0,0,.11-.04l1.477-.9a.3.3,0,0,0,.1-.1l.83-1.408.782-.266a.3.3,0,0,0,.187-.19l.3-.9a.3.3,0,0,0-.188-.38.31.31,0,0,0-.044-.011l-1.71-.29-.3-.2a8.115,8.115,0,0,1,5.681.215l-.54.274H10.341a.3.3,0,0,0-.266.166l-.591,1.2a.3.3,0,0,0,.133.4.308.308,0,0,0,.038.016l.886.3a.286.286,0,0,0,.165.007l1.1-.279.8.273a.209.209,0,0,0,.035.01l1.477.3a.289.289,0,0,0,.222-.044l.672-.456A8.479,8.479,0,0,1,15.9,4.611L14.451,5.1l-1.574-.267-.52-.793a.294.294,0,0,0-.244-.134H10.341A.292.292,0,0,0,10.132,4l-.886.9a.3.3,0,0,0-.084.255l.3,2.1a.3.3,0,0,0,.177.234l2.068.9a.287.287,0,0,0,.188.015l1.055-.268.645.438V9.62a.306.306,0,0,0,.03.134L14.772,12.1v1.131a.3.3,0,0,0,.087.212l.618.629A8.175,8.175,0,0,1,3.9,15.749,8.5,8.5,0,0,1,.954,6.561Z" transform="translate(0 -0.002)"/>
    </g>
  </g>
</svg>
