<svg xmlns="http://www.w3.org/2000/svg" width="23.305" height="25.614" viewBox="0 0 23.305 25.614">
  <g id="Group_60" data-name="Group 60" transform="translate(531.563 326.518)">
    <g id="Component_16_1" data-name="Component 16 – 1" transform="translate(-531.499 -326.445)">
      <path id="Subtraction_119" data-name="Subtraction 119" d="M0,8.118l0,0L7.316,0l.223.972.352.694.383.486-.735.972L7.316,4.686ZM5.321,3.508A.493.493,0,1,0,5.806,4,.489.489,0,0,0,5.321,3.508Z" transform="translate(0 14.392)" fill="#171717" stroke="#000" stroke-width="0.1"/>
      <g id="Group_59" data-name="Group 59" transform="translate(7.762)">
        <path id="Path_156" data-name="Path 156" d="M-529.683-306.341l.1.378.1.333.142.333.283.25.283.125.384.094h.3l13.821-15.48-.171-.211Z" transform="translate(529.683 320.519)" fill="#000103" stroke="#0e0e0e" stroke-width="0.1"/>
        <path id="Path_157" data-name="Path 157" d="M-528.341-302.684l2.49-2.65,11.141-11.857-14.207,13.758v.364l.276.386Z" transform="translate(529.392 317.913)" fill="#10e9c4"/>
      </g>
      <path id="Path_158" data-name="Path 158" d="M0,.684l9.663-.2L1.718,2.7,16.661,1.16s-10,2.232-9.453,2.235,2.754.337,2.754.337L21.37.312,5.893,1.91,12.5.024Z" transform="matrix(1, -0.017, 0.017, 1, 1.743, 21.759)" fill="#011c33" stroke="#00024a" stroke-width="0.1"/>
    </g>
  </g>
</svg>
