<svg xmlns="http://www.w3.org/2000/svg" width="20.517" height="18.3" viewBox="0 0 20.517 18.3">
  <g id="Component_12_1" data-name="Component 12 – 1" transform="translate(0.05 0.25)">
    <g id="Component_11_1" data-name="Component 11 – 1">
      <path id="Path_126" data-name="Path 126" d="M-377.213-368.175l9.064-9.25h1.454l9.094,9.25h-1.949l-7.981-7.758-7.826,7.758h-1.856" transform="translate(377.472 377.425)" fill="#f1cd59" stroke="#670000" stroke-width="0.5"/>
      <path id="Path_127" data-name="Path 127" d="M-364.53-373.723v-.591h1.694v2.324Z" transform="translate(380.082 377.621)" fill="#e66400" stroke="#770909" stroke-width="0.2"/>
      <path id="Path_128" data-name="Path 128" d="M-377.17-361.5h2.383v-7.387h1.146v7.387h12.6v-7.387H-360v7.387h2.525v.821h-20v-.821Z" transform="translate(377.472 378.682)" fill="#02370d" stroke="#013308" stroke-width="0.1"/>
      <path id="Path_129" data-name="Path 129" d="M-373.009-362.162v-6.076h3.919v6.076Z" transform="translate(378.403 379.201)" fill="#0e0f0e" stroke="#00ab06" stroke-width="0.1"/>
      <path id="Path_130" data-name="Path 130" d="M-367.345-367.86h3.557v3.764h-3.557Z" transform="translate(379.036 379.968)" fill="#111411" stroke="#0dbe00" stroke-width="0.1"/>
    </g>
    <path id="Path_131" data-name="Path 131" d="M-371.8-366.031v5.328l1.063-.687v-4.219Z" transform="translate(377.535 377.425)" fill="#f1cd59" stroke="#0dbe00" stroke-width="0.1"/>
    <path id="Path_132" data-name="Path 132" d="M-370.8-366.031v5.328l-1-.687v-4.219Z" transform="translate(379.769 377.425)" fill="#f1cd59" stroke="#0dbe00" stroke-width="0.1"/>
    <path id="Path_133" data-name="Path 133" d="M-365.361-364.772v2.864l1.1-.345v-2.194Z" transform="translate(377.472 377.425)" fill="none" stroke="#707070" stroke-width="0.1"/>
    <path id="Path_134" data-name="Path 134" d="M-365.361-364.772v2.864l1.1-.345v-2.194Z" transform="translate(377.472 377.425)" fill="#f1cd59" stroke="#00ab06" stroke-width="0.1"/>
    <path id="Path_135" data-name="Path 135" d="M-364.2-364.772v2.864l-1.156-.345v-2.194Z" transform="translate(379.083 377.425)" fill="#f1cd59" stroke="#00ab06" stroke-width="0.1"/>
  </g>
</svg>
