<svg xmlns="http://www.w3.org/2000/svg" xmlns:xlink="http://www.w3.org/1999/xlink" width="21" height="22" viewBox="0 0 21 22">
  <defs>
    <style>
      .cls-1 {
        fill: #fff;
        stroke: #707070;
      }

      .cls-2 {
        clip-path: url(#clip-path);
      }

      .cls-3 {
        fill: #f8ec7d;
      }

      .cls-4 {
        fill: #ffc9a4;
      }

      .cls-5 {
        fill: #332a26;
      }

      .cls-6 {
        fill: #14b508;
      }

      .cls-7 {
        fill: #c59b7d;
      }

      .cls-8 {
        fill: #58504c;
      }

      .cls-9 {
        fill: #012b06;
      }

      .cls-10 {
        fill: #63316d;
      }
    </style>
    <clipPath id="clip-path">
      <rect id="Rectangle_60" data-name="Rectangle 60" class="cls-1" width="21" height="22" transform="translate(-614.819 -301)"/>
    </clipPath>
  </defs>
  <g id="Mask_Group_11" data-name="Mask Group 11" class="cls-2" transform="translate(614.819 301)">
    <g id="login" transform="translate(-613.14 -301)">
      <path id="Path_96" data-name="Path 96" class="cls-3" d="M13.451,10.521a16.483,16.483,0,0,0,1.509,1.933,13.04,13.04,0,0,0,1.725,1.436.261.261,0,0,1,.106.174.268.268,0,0,1-.05.2l-2.211,2.952a.244.244,0,0,1-.346.05A18.927,18.927,0,0,1,12.593,15.9l-1.874,1.946-.873.906.112.708-.779-.015.059.763-.716-.08-.539.559-.9-.187-.18-.936,4.609-4.788q-.245-.277-.48-.563-.435-.529-.832-1.092a.266.266,0,0,1,.048-.359l2.847-2.3a.244.244,0,0,1,.19-.052.249.249,0,0,1,.167.107Zm1.276,4.439.5-.674-.544-.494A12.454,12.454,0,0,1,13.544,12.6l-.476-.565-.649.524.793,1.573Zm0,0" transform="translate(0.407 1.041)"/>
      <path id="Path_97" data-name="Path 97" class="cls-4" d="M4.886,4.376a9.331,9.331,0,0,0,6.048,2.1v-.01a.811.811,0,0,1,.711.634,1.143,1.143,0,0,1-.143.867,1.064,1.064,0,0,1-.707.485v.007l-.22.784A3.99,3.99,0,0,1,6.7,12.588a3.991,3.991,0,0,1-3.88-3.343L2.6,8.462V8.455a1.064,1.064,0,0,1-.707-.485A1.142,1.142,0,0,1,1.749,7.1a.811.811,0,0,1,.713-.634v.026a.547.547,0,0,0,.287.083.579.579,0,0,0,.568-.564l.07-1.6a12.269,12.269,0,0,0,1.5-.04Zm0,0" transform="translate(0.101 0.438)"/>
      <path id="Path_98" data-name="Path 98" class="cls-5" d="M7.12,4.393a12.089,12.089,0,0,1-2.275.4,12.269,12.269,0,0,1-1.5.04l-.07,1.6a.579.579,0,0,1-.568.564.547.547,0,0,1-.287-.083V4.644A4.32,4.32,0,0,1,6.657.244a4.32,4.32,0,0,1,4.236,4.4V6.162A5.264,5.264,0,0,1,7.12,4.393Zm0,0" transform="translate(0.143 0.024)"/>
      <path id="Path_99" data-name="Path 99" class="cls-6" d="M8.673,13l2.751.953q.235.287.48.563L8.163,18.406H.244V16.2a2.257,2.257,0,0,1,.05-.494c.007-.029.014-.058.022-.087A2.265,2.265,0,0,1,1.78,14.053L4.9,13a3.842,3.842,0,0,0,3.778,0Zm0,0" transform="translate(0.014 1.3)"/>
      <path id="Path_100" data-name="Path 100" class="cls-7" d="M4.641,11.39a3.821,3.821,0,0,0,3.768,0v1.773l0,0a3.842,3.842,0,0,1-3.778,0l0,0Zm0,0" transform="translate(0.274 1.139)"/>
      <path id="Path_101" data-name="Path 101" class="cls-8" d="M6.985,4.016a5.264,5.264,0,0,0,3.773,1.769v.73a9.331,9.331,0,0,1-6.048-2.1,12.089,12.089,0,0,0,2.275-.4Zm0,0" transform="translate(0.278 0.402)"/>
      <g id="Group_42" data-name="Group 42" transform="translate(0 0)">
        <path id="Path_102" data-name="Path 102" class="cls-9" d="M17.238,14.709a12.946,12.946,0,0,1-1.688-1.4,16.36,16.36,0,0,1-1.481-1.9.506.506,0,0,0-.341-.217.5.5,0,0,0-.387.106l-2.847,2.3a.539.539,0,0,0-.1.73c.092.13.186.259.282.387l-1.739-.6V12.685a4.351,4.351,0,0,0,1.988-2.939l.177-.63A1.383,1.383,0,0,0,12,7.476a1.076,1.076,0,0,0-.7-.786V4.668A4.584,4.584,0,0,0,6.8,0,4.584,4.584,0,0,0,2.305,4.668V6.689a1.075,1.075,0,0,0-.706.787,1.439,1.439,0,0,0-.038.327,1.366,1.366,0,0,0,.93,1.312l.176.63a4.356,4.356,0,0,0,1.989,2.938v1.424L1.715,15.1A2.516,2.516,0,0,0,.082,16.843c-.009.031-.016.063-.025.1A2.512,2.512,0,0,0,0,17.5v2.209a.263.263,0,0,0,.258.268h7.3l-.427.444a.275.275,0,0,0-.071.242l.18.936a.263.263,0,0,0,.2.21l.9.187a.252.252,0,0,0,.233-.073l.452-.469.593.066a.252.252,0,0,0,.208-.074.274.274,0,0,0,.077-.214l-.036-.468.494.01a.255.255,0,0,0,.2-.093.276.276,0,0,0,.06-.219l-.09-.572,2.479-2.574c.458.426.939.832,1.432,1.209a.494.494,0,0,0,.7-.1l2.211-2.952a.543.543,0,0,0,.1-.406.53.53,0,0,0-.216-.355ZM5.173,12.954a4.059,4.059,0,0,0,3.252,0v1.188a3.576,3.576,0,0,1-3.252,0Zm2-8.235a5.58,5.58,0,0,0,3.6,1.715v.214A9.322,9.322,0,0,1,5.64,5.015a11.76,11.76,0,0,0,1.533-.3ZM2.822,4.668A4.057,4.057,0,0,1,6.8.537a4.057,4.057,0,0,1,3.978,4.132V5.894A5.257,5.257,0,0,1,7.746,4.548,6.51,6.51,0,0,0,9.754,3.5a.273.273,0,0,0,.1-.249A.267.267,0,0,0,9.7,3.037a.251.251,0,0,0-.259.039A6.35,6.35,0,0,1,7.2,4.158h0a11.718,11.718,0,0,1-2.228.388A12.215,12.215,0,0,1,3.5,4.585a.253.253,0,0,0-.187.069.273.273,0,0,0-.084.186l-.07,1.6a.328.328,0,0,1-.107.228.3.3,0,0,1-.232.078Zm.351,4.965c0-.009,0-.017-.006-.025l-.213-.759a.263.263,0,0,0-.21-.22A.827.827,0,0,1,2.078,7.8.881.881,0,0,1,2.1,7.6a.542.542,0,0,1,.385-.41.8.8,0,0,0,.786-.029.862.862,0,0,0,.4-.7l.059-1.334c.248,0,.657,0,1.164-.039A8.547,8.547,0,0,0,8.873,6.971a9.981,9.981,0,0,0,2.173.213l.021,0a.545.545,0,0,1,.43.422.853.853,0,0,1,.023.2.83.83,0,0,1-.666.825.263.263,0,0,0-.211.22l-.213.759c0,.008,0,.017-.006.025a3.814,3.814,0,0,1-2.042,2.752,3.567,3.567,0,0,1-3.344-.093,3.828,3.828,0,0,1-1.865-2.66Zm-2.656,9.8V17.5a1.964,1.964,0,0,1,.043-.43c.006-.026.012-.052.02-.08a1.99,1.99,0,0,1,1.3-1.379l3.012-1.014a4.071,4.071,0,0,0,3.823,0l2.579.893q.132.16.273.323L8.071,19.438ZM14.74,18.086a18.653,18.653,0,0,1-1.564-1.339.252.252,0,0,0-.358.008l-2.746,2.852A.275.275,0,0,0,10,19.84l.062.39-.469-.009a.254.254,0,0,0-.193.084.275.275,0,0,0-.069.205l.034.441-.406-.046a.253.253,0,0,0-.21.077l-.441.458-.6-.124-.119-.62L12.1,16.01a.276.276,0,0,0,.007-.371c-.166-.187-.325-.374-.474-.555h0c-.282-.343-.556-.7-.815-1.07l2.833-2.289a16.84,16.84,0,0,0,1.533,1.96,13.145,13.145,0,0,0,1.755,1.463Zm0,0" transform="translate(0 0)"/>
        <path id="Path_103" data-name="Path 103" class="cls-10" d="M13.445,12.3l-.476-.565a.252.252,0,0,0-.353-.035l-.649.524a.275.275,0,0,0-.07.336l.793,1.573a.263.263,0,0,0,.109.113l1.514.824A.252.252,0,0,0,14.637,15l.5-.674a.276.276,0,0,0-.034-.367l-.544-.494A12.213,12.213,0,0,1,13.445,12.3ZM14.585,14.2l-.222.3-1.252-.681-.656-1.3.286-.231.315.375a12.755,12.755,0,0,0,1.167,1.213Zm0,0" transform="translate(0.7 1.165)"/>
      </g>
    </g>
  </g>
</svg>
