<svg xmlns="http://www.w3.org/2000/svg" xmlns:xlink="http://www.w3.org/1999/xlink" width="20" height="20" viewBox="0 0 20 20">
  <defs>
    <clipPath id="clip-path">
      <rect id="Rectangle_45" data-name="Rectangle 45" width="20" height="20" transform="translate(-586 -318)" fill="#fff" stroke="#707070" stroke-width="1"/>
    </clipPath>
  </defs>
  <g id="Mask_Group_6" data-name="Mask Group 6" transform="translate(586 318)" clip-path="url(#clip-path)">
    <g id="entrepreneur" transform="translate(-583.828 -318)">
      <g id="Group_17" data-name="Group 17">
        <path id="Path_54" data-name="Path 54" d="M6.37,6.168a1.161,1.161,0,0,0,.29.635c.283,1.884,1.859,3.633,3.3,3.633a3.381,3.381,0,0,0,2.4-1.307l.712-1.084.4-1.239a1.161,1.161,0,0,0,.3-.638c.1-.353.218-.967,0-1.254-.012-.014-.024-.028-.035-.042a3.665,3.665,0,0,0-.458-3.317,3.376,3.376,0,0,0-1.7-1.043L11.049.331A8.36,8.36,0,0,0,9.616,0,.342.342,0,0,0,9.5.012a.594.594,0,0,1-.214.024,1.483,1.483,0,0,0-.573.1A4.108,4.108,0,0,0,6.455,2.4a5.121,5.121,0,0,0,.02,2.419.467.467,0,0,0-.107.1C6.15,5.2,6.274,5.815,6.37,6.168Zm.658-3.549c0-.008.006-.016.009-.026A3.541,3.541,0,0,1,8.932.707,1.01,1.01,0,0,1,9.2.644,1.22,1.22,0,0,0,9.6.617a8.571,8.571,0,0,1,1.257.3l.528.181a2.8,2.8,0,0,1,1.4.837.189.189,0,0,0,.02.023c.85.959.411,2.543.257,3.005a.31.31,0,0,0,.212.395,2.833,2.833,0,0,1-.108.666c0,.012-.006.023-.008.035A.527.527,0,0,1,13,6.4a.3.3,0,0,0-.121.2c-.205,1.456-1.552,3.215-2.916,3.215-1.147,0-2.513-1.62-2.707-3.209a.306.306,0,0,0-.121-.208.545.545,0,0,1-.161-.351c0-.012,0-.024-.007-.036a2.915,2.915,0,0,1-.107-.634.312.312,0,0,0,.164-.064.306.306,0,0,0,.114-.3A5.288,5.288,0,0,1,7.028,2.619Z" transform="translate(-2.173 0)" fill="#10700a"/>
        <path id="Path_55" data-name="Path 55" d="M16.489,11.814a2.657,2.657,0,0,0-1.154-.778l-.172-.055a12.827,12.827,0,0,0-1.407-.556c-.147-.052-.275-.1-.393-.154-.489-.243-.9-.515-.982-.772l.367,2.945-2.663,6.842-2.514-6.7.051-3.089c-.227.713-2.955,1.541-2.955,1.541a2.668,2.668,0,0,0-1.154.778c-1.2,1.779-1.341,5.736-1.341,5.736.016.9.406,1,.406,1A24.382,24.382,0,0,0,9.664,20c.233,0,.452-.007.667-.021l.006.023a24.382,24.382,0,0,0,7.085-1.449s.391-.1.406-1C17.828,17.551,17.688,13.592,16.489,11.814Z" transform="translate(-2.173 0)" fill="#703dff" stroke="#053e10" stroke-width="0.3"/>
        <path id="Path_56" data-name="Path 56" d="M12.288,9.616c.031-.039.063-.075.093-.117a.319.319,0,0,1-.007-.039C12.345,9.515,12.316,9.562,12.288,9.616Z" transform="translate(-2.173 0)" fill="#fff"/>
        <path id="Path_57" data-name="Path 57" d="M7.636,9.489l-.007-.028-.006.033c0-.006.007-.012.008-.017A.081.081,0,0,1,7.636,9.489Z" transform="translate(-2.173 0)" fill="#fff"/>
        <path id="Path_58" data-name="Path 58" d="M8.927,10.74l1.182,1.807L11.29,10.74A2.921,2.921,0,0,1,8.927,10.74Z" transform="translate(-2.173 0)" fill="#eb2b2b"/>
        <path id="Path_59" data-name="Path 59" d="M10.108,18.624l.9-5.488-.9-.59-.9.59Z" transform="translate(-2.173 0)" fill="#ee3131"/>
      </g>
    </g>
  </g>
</svg>
