<svg id="Component_18_1" data-name="Component 18 – 1" xmlns="http://www.w3.org/2000/svg" xmlns:xlink="http://www.w3.org/1999/xlink" width="20" height="20" viewBox="0 0 20 20">
  <defs>
    <clipPath id="clip-path">
      <rect id="Rectangle_105" data-name="Rectangle 105" width="20" height="20" transform="translate(-533 -277)" fill="#76d84d" stroke="#08561a" stroke-width="1"/>
    </clipPath>
  </defs>
  <g id="Mask_Group_16" data-name="Mask Group 16" transform="translate(533 277)" clip-path="url(#clip-path)">
    <g id="SignUp" transform="translate(-533 -277)">
      <g id="Group_78" data-name="Group 78" transform="translate(11.512)">
        <g id="Group_77" data-name="Group 77">
          <path id="Path_233" data-name="Path 233" d="M15.162,3.415a1.761,1.761,0,0,0-.507-1.243L13.023.515A1.756,1.756,0,0,0,11.788,0h-.1V3.516h3.474v-.1Z" transform="translate(-11.688)" fill="#21d527" stroke="#4a0101" stroke-width="0.2"/>
        </g>
      </g>
      <g id="Group_80" data-name="Group 80">
        <g id="Group_79" data-name="Group 79">
          <path id="Path_234" data-name="Path 234" d="M10.539,12.091a2.358,2.358,0,0,1,.555-.914L15,7.226V4.688H10.946a.566.566,0,0,1-.558-.586V0H1.731A1.747,1.747,0,0,0,0,1.758V18.242A1.747,1.747,0,0,0,1.731,20H13.255A1.76,1.76,0,0,0,15,18.242V13.869l-.634.628a2.29,2.29,0,0,1-.9.562l-1.835.622-.28.015a1.442,1.442,0,0,1-1.171-.611,1.488,1.488,0,0,1-.2-1.319ZM2.886,10.547H8.638a.586.586,0,0,1,0,1.172H2.886a.586.586,0,0,1,0-1.172ZM2.308,8.789A.581.581,0,0,1,2.886,8.2H8.638a.586.586,0,0,1,0,1.172H2.886A.581.581,0,0,1,2.308,8.789Zm0,4.688a.581.581,0,0,1,.577-.586H8.638a.586.586,0,0,1,0,1.172H2.886A.581.581,0,0,1,2.308,13.477Zm8.638,2.93a.586.586,0,0,1,0,1.172H7.484a.586.586,0,0,1,0-1.172ZM2.886,7.031a.586.586,0,0,1,0-1.172h8.061a.586.586,0,0,1,0,1.172Z" fill="#93e596" stroke="#1b500f" stroke-width="0.5"/>
        </g>
      </g>
      <g id="Group_82" data-name="Group 82" transform="translate(11.067 12.61)">
        <g id="Group_81" data-name="Group 81">
          <path id="Path_235" data-name="Path 235" d="M11.754,12.61l-.5,1.529a.291.291,0,0,0,.365.371L13.123,14Z" transform="translate(-11.237 -12.61)" fill="#081a46" stroke="#707070" stroke-width="0.2"/>
        </g>
      </g>
      <g id="Group_84" data-name="Group 84" transform="translate(12.266 7.785)">
        <g id="Group_83" data-name="Group 83">
          <path id="Path_236" data-name="Path 236" d="M16.255,7.785l-3.8,3.859,1.639,1.664,3.8-3.859Z" transform="translate(-12.454 -7.785)" fill="#0178ff" stroke="#0c0b0b" stroke-width="0.5"/>
        </g>
      </g>
      <g id="Group_86" data-name="Group 86" transform="translate(16.883 5.779)">
        <g id="Group_85" data-name="Group 85">
          <path id="Path_237" data-name="Path 237" d="M19.618,6.1a1.192,1.192,0,0,0-1.638,0l-.839.851L18.78,8.621l.839-.852A1.192,1.192,0,0,0,19.618,6.1Z" transform="translate(-17.141 -5.779)" fill="#0178ff" stroke="#030c60" stroke-width="0.2"/>
        </g>
      </g>
      <g id="Group_89" data-name="Group 89" transform="translate(19.36 7.758)">
        <g id="Group_88" data-name="Group 88">
          <g id="Group_87" data-name="Group 87">
            <path id="Path_238" data-name="Path 238" d="M19.657,7.769h0l0,0Z" transform="translate(-19.657 -7.758)" fill="#fff"/>
            <path id="Path_239" data-name="Path 239" d="M19.66,7.766l.005-.005Z" transform="translate(-19.657 -7.758)" fill="#fff"/>
            <path id="Path_240" data-name="Path 240" d="M19.665,7.761Z" transform="translate(-19.657 -7.758)" fill="#fff"/>
          </g>
        </g>
      </g>
    </g>
  </g>
  <path id="Rectangle_106" data-name="Rectangle 106" d="M0,0H11a2,2,0,0,1,2,2V8a0,0,0,0,1,0,0H0A0,0,0,0,1,0,8V0A0,0,0,0,1,0,0Z" transform="translate(1 2)" fill="#f30707"/>
  <text id="New" transform="translate(7 8)" fill="#fff" font-size="6" font-family="NirmalaUI, Nirmala UI"><tspan x="-5.981" y="0">New</tspan></text>
</svg>
