<svg xmlns="http://www.w3.org/2000/svg" xmlns:xlink="http://www.w3.org/1999/xlink" width="20" height="20" viewBox="0 0 20 20">
  <defs>
    <style>
      .cls-1, .cls-5 {
        fill: #fff;
      }

      .cls-1 {
        stroke: #0c4a05;
      }

      .cls-2 {
        clip-path: url(#clip-path);
      }

      .cls-3 {
        fill: #14b508;
      }

      .cls-4 {
        fill: #d88a25;
        stroke: #d5382d;
        stroke-width: 0.5px;
      }
    </style>
    <clipPath id="clip-path">
      <rect id="Rectangle_43" data-name="Rectangle 43" class="cls-1" width="20" height="20" transform="translate(-589 -316)"/>
    </clipPath>
  </defs>
  <g id="Mask_Group_4" data-name="Mask Group 4" class="cls-2" transform="translate(589 316)">
    <g id="Trending" transform="translate(-585.272 -316)">
      <path id="Path_43" data-name="Path 43" class="cls-3" d="M3.987,13.674a6.057,6.057,0,0,0,6.1,6.013h0a6.057,6.057,0,0,0,6.1-6.013c0-3.34-1.694-6.013-.558-8.351,0,0-1.815.334-2.831,3.006A8.4,8.4,0,0,1,10.826.313,5.407,5.407,0,0,0,7.737,5.992c.309,3.724-.361,4.342-.361,4.342A5.121,5.121,0,0,0,4.992,5.992C5.682,9.666,3.987,10.668,3.987,13.674Z" transform="translate(-3.67 0)"/>
      <path id="Path_44" data-name="Path 44" class="cls-4" d="M14.462,15.1a4.5,4.5,0,0,1-4.5,4.588,3.857,3.857,0,0,1-3.974-4.174,10.061,10.061,0,0,1,2.2-4.447l.876.522a17.259,17.259,0,0,1,.988-4.927C10.726,9.622,14.462,10.39,14.462,15.1Z" transform="translate(-3.641 0)"/>
      <path id="Path_45" data-name="Path 45" class="cls-5" d="M8.344,13.006c-.339,2-1.017,2.734-1.017,4.008a2.786,2.786,0,0,0,2.711,2.672h0a2.7,2.7,0,0,0,2.711-2.7,10.841,10.841,0,0,0-2.372-6.652A5.871,5.871,0,0,1,9.7,14.008,3.443,3.443,0,0,0,8.344,13.006Z" transform="translate(-3.621 0)"/>
      <path id="Path_46" data-name="Path 46" class="cls-5" d="M15.978,9.895c-.371-1.68-.691-3.131-.057-4.436a.309.309,0,0,0-.034-.326.32.32,0,0,0-.31-.117,4.413,4.413,0,0,0-2.871,2.727,8.884,8.884,0,0,1-1.131-1.8A7.518,7.518,0,0,1,11.135.4a.31.31,0,0,0-.089-.32.321.321,0,0,0-.331-.061,5.373,5.373,0,0,0-1.8,1.29A5.925,5.925,0,0,0,7.425,6.017a16.854,16.854,0,0,1,.044,2.727A5.39,5.39,0,0,0,6.433,6.836a5.143,5.143,0,0,0-1.28-1.116.322.322,0,0,0-.341.017.311.311,0,0,0-.128.312,7.807,7.807,0,0,1-.4,4.462,9.4,9.4,0,0,0-.608,3.163,6.419,6.419,0,0,0,12.836,0A17.326,17.326,0,0,0,15.978,9.895Zm-3.519,8.979a2.943,2.943,0,0,0,.662-1.859,11.127,11.127,0,0,0-1.22-4.983,9.67,9.67,0,0,0-1.231-1.9.321.321,0,0,0-.448-.029.31.31,0,0,0-.03.442,10.585,10.585,0,0,1,2.294,6.474,2.379,2.379,0,0,1-2.393,2.359A2.471,2.471,0,0,1,7.7,17.015a3.06,3.06,0,0,1,.241-1.22.312.312,0,0,0-.177-.407.319.319,0,0,0-.413.174,3.692,3.692,0,0,0-.286,1.453A2.952,2.952,0,0,0,7.8,18.905,5.706,5.706,0,0,1,4.31,13.674,8.773,8.773,0,0,1,4.887,10.7a8.5,8.5,0,0,0,.538-4,4.788,4.788,0,0,1,1.639,3.631.313.313,0,0,0,.191.287.321.321,0,0,0,.344-.059c.131-.121.767-.909.46-4.6A5.3,5.3,0,0,1,9.365,1.757a5.137,5.137,0,0,1,.979-.824A8.287,8.287,0,0,0,11,6.207a8.817,8.817,0,0,0,1.581,2.344.321.321,0,0,0,.292.085.316.316,0,0,0,.23-.2,4.711,4.711,0,0,1,1.987-2.56,8.725,8.725,0,0,0,.27,4.148,16.587,16.587,0,0,1,.517,3.646A5.7,5.7,0,0,1,12.459,18.874Z" transform="translate(-3.674 0)"/>
      <path id="Path_47" data-name="Path 47" class="cls-5" d="M9.68,13.472a1.916,1.916,0,0,0-1.342-.779.315.315,0,0,0-.318.313,4.113,4.113,0,0,1-.174,1.245.312.312,0,0,0,.212.391.323.323,0,0,0,.093.014.317.317,0,0,0,.3-.222,4.539,4.539,0,0,0,.187-1.011l.019.01a2.245,2.245,0,0,1,.769.75.321.321,0,0,0,.489.048,3.1,3.1,0,0,0,.7-1.489.313.313,0,0,0-.24-.374.318.318,0,0,0-.38.237A3.412,3.412,0,0,1,9.68,13.472Z" transform="translate(-3.614 0)"/>
    </g>
  </g>
</svg>
