<svg xmlns="http://www.w3.org/2000/svg" xmlns:xlink="http://www.w3.org/1999/xlink" width="20" height="20" viewBox="0 0 20 20">
  <defs>
    <style>
      .cls-1 {
        fill: #fff;
      }

      .cls-2 {
        clip-path: url(#clip-path);
      }

      .cls-3 {
        fill: #27c997;
        stroke: #046d13;
        stroke-width: 0.2px;
      }
    </style>
    <clipPath id="clip-path">
      <rect id="Rectangle_55" data-name="Rectangle 55" class="cls-1" width="20" height="20" transform="translate(-595 -464)"/>
    </clipPath>
  </defs>
  <g id="Mask_Group_7" data-name="Mask Group 7" class="cls-2" transform="translate(595 464)">
    <g id="hambergerMenu" transform="translate(-595 -464)">
      <g id="Group_26" data-name="Group 26">
        <g id="Group_25" data-name="Group 25">
          <path id="Path_71" data-name="Path 71" class="cls-3" d="M8.462,0H.769A.769.769,0,0,0,0,.769V8.462a.769.769,0,0,0,.769.769H8.462a.769.769,0,0,0,.769-.769V.769A.769.769,0,0,0,8.462,0Z"/>
          <path id="Path_72" data-name="Path 72" class="cls-3" d="M19.231,0H11.538a.769.769,0,0,0-.769.769V8.462a.769.769,0,0,0,.769.769h7.692A.769.769,0,0,0,20,8.462V.769A.769.769,0,0,0,19.231,0Z"/>
          <path id="Path_73" data-name="Path 73" class="cls-3" d="M8.462,10.769H.769A.769.769,0,0,0,0,11.538v7.692A.769.769,0,0,0,.769,20H8.462a.769.769,0,0,0,.769-.769V11.538A.769.769,0,0,0,8.462,10.769Z" transform="translate(0 0)"/>
          <path id="Path_74" data-name="Path 74" class="cls-3" d="M19.231,10.769H11.538a.769.769,0,0,0-.769.769v7.692a.769.769,0,0,0,.769.769h7.692A.769.769,0,0,0,20,19.231V11.538A.769.769,0,0,0,19.231,10.769Z" transform="translate(0 0)"/>
        </g>
      </g>
    </g>
  </g>
</svg>
